<?xml version="1.0" encoding="UTF-8"?>
<svg xmlns="http://www.w3.org/2000/svg"
     xmlns:xlink="http://www.w3.org/1999/xlink"
     xmlns:gadfly="http://www.gadflyjl.org/ns"
     version="1.2"
     width="130mm" height="130mm" viewBox="0 0 130 130"
     stroke="none"
     fill="#000000"
     stroke-width="0.3"
     font-size="3.88"
>
<g class="plotroot xscalable yscalable" id="img-b4deb56f-1">
  <g font-size="3.88" font-family="'PT Sans','Helvetica Neue','Helvetica',sans-serif" fill="#564A55" stroke="#000000" stroke-opacity="0.000" id="img-b4deb56f-2">
    <text x="71.2" y="118.39" text-anchor="middle" dy="0.6em">Re(αₙ)</text>
  </g>
  <g class="guide xlabels" font-size="2.82" font-family="'PT Sans Caption','Helvetica Neue','Helvetica',sans-serif" fill="#6C606B" id="img-b4deb56f-3">
    <text x="31.35" y="111.72" text-anchor="middle" dy="0.6em">-1</text>
    <text x="71.2" y="111.72" text-anchor="middle" dy="0.6em">0</text>
    <text x="111.05" y="111.72" text-anchor="middle" dy="0.6em">1</text>
  </g>
<g clip-path="url(#img-b4deb56f-4)">
  <g id="img-b4deb56f-5">
    <g pointer-events="visible" opacity="1" fill="#000000" fill-opacity="0.000" stroke="#000000" stroke-opacity="0.000" class="guide background" id="img-b4deb56f-6">
      <rect x="17.4" y="5" width="107.6" height="105.72"/>
    </g>
    <g class="guide ygridlines xfixed" stroke-dasharray="0.5,0.5" stroke-width="0.2" stroke="#D0D0E0" id="img-b4deb56f-7">
      <path fill="none" d="M17.4,96.98 L 125 96.98"/>
      <path fill="none" d="M17.4,57.86 L 125 57.86"/>
      <path fill="none" d="M17.4,18.74 L 125 18.74"/>
    </g>
    <g class="guide xgridlines yfixed" stroke-dasharray="0.5,0.5" stroke-width="0.2" stroke="#D0D0E0" id="img-b4deb56f-8">
      <path fill="none" d="M31.35,5 L 31.35 110.72"/>
      <path fill="none" d="M71.2,5 L 71.2 110.72"/>
      <path fill="none" d="M111.05,5 L 111.05 110.72"/>
    </g>
    <g class="plotpanel" id="img-b4deb56f-9">
      <g class="geometry" id="img-b4deb56f-10">
        <g class="color_RGBA{Float32}(0.0f0,0.74736935f0,1.0f0,1.0f0)" stroke="#FFFFFF" stroke-width="0.3" fill="#00BFFF" id="img-b4deb56f-11">
          <use xlink:href="#img-b4deb56f-12" x="111.27" y="57.86"/>
          <use xlink:href="#img-b4deb56f-12" x="50.81" y="57.86"/>
          <use xlink:href="#img-b4deb56f-12" x="85.19" y="57.86"/>
          <use xlink:href="#img-b4deb56f-12" x="60.27" y="57.86"/>
          <use xlink:href="#img-b4deb56f-12" x="80.43" y="57.86"/>
          <use xlink:href="#img-b4deb56f-12" x="62.97" y="57.86"/>
          <use xlink:href="#img-b4deb56f-12" x="78.86" y="57.86"/>
          <use xlink:href="#img-b4deb56f-12" x="63.8" y="57.86"/>
          <use xlink:href="#img-b4deb56f-12" x="78.59" y="57.86"/>
          <use xlink:href="#img-b4deb56f-12" x="63.54" y="57.86"/>
          <use xlink:href="#img-b4deb56f-12" x="79.43" y="57.86"/>
          <use xlink:href="#img-b4deb56f-12" x="61.97" y="57.86"/>
          <use xlink:href="#img-b4deb56f-12" x="82.13" y="57.86"/>
          <use xlink:href="#img-b4deb56f-12" x="57.21" y="57.86"/>
          <use xlink:href="#img-b4deb56f-12" x="91.58" y="57.86"/>
          <use xlink:href="#img-b4deb56f-12" x="31.12" y="57.86"/>
        </g>
      </g>
      <g stroke-width="0.3" fill="#000000" fill-opacity="0.000" class="geometry" stroke-dasharray="none" stroke="#008000" id="img-b4deb56f-13">
        <path fill="none" d="M31.12,57.86 L 31.14 58.77 31.17 59.67 31.22 60.58 31.3 61.49 31.39 62.39 31.51 63.29 31.65 64.19 31.81 65.09 31.99 65.98 32.19 66.87 32.41 67.75 32.65 68.62 32.92 69.5 33.2 70.36 33.51 71.22 33.83 72.07 34.18 72.91 34.54 73.75 34.92 74.58 35.33 75.39 35.75 76.2 36.19 77 36.65 77.79 37.13 78.57 37.62 79.34 38.14 80.09 38.67 80.84 39.22 81.57 39.79 82.29 40.37 82.99 40.97 83.69 41.58 84.36 42.22 85.03 42.86 85.68 43.52 86.31 44.2 86.93 44.89 87.54 45.6 88.13 46.32 88.7 47.05 89.26 47.79 89.79 48.55 90.32 49.32 90.82 50.1 91.31 50.9 91.78 51.7 92.23 52.51 92.66 53.34 93.08 54.17 93.47 55.01 93.85 55.86 94.21 56.72 94.55 57.59 94.86 58.46 95.16 59.34 95.44 60.23 95.7 61.13 95.94 62.02 96.16 62.93 96.35 63.84 96.53 64.75 96.69 65.66 96.82 66.58 96.94 67.5 97.03 68.42 97.11 69.35 97.16 70.27 97.19 71.2 97.2 72.12 97.19 73.05 97.16 73.97 97.11 74.9 97.03 75.82 96.94 76.74 96.82 77.65 96.69 78.56 96.53 79.47 96.35 80.37 96.16 81.27 95.94 82.17 95.7 83.05 95.44 83.93 95.16 84.81 94.86 85.68 94.55 86.54 94.21 87.39 93.85 88.23 93.47 89.06 93.08 89.89 92.66 90.7 92.23 91.5 91.78 92.3 91.31 93.08 90.82 93.85 90.32 94.6 89.79 95.35 89.26 96.08 88.7 96.8 88.13 97.51 87.54 98.2 86.93 98.87 86.31 99.54 85.68 100.18 85.03 100.81 84.36 101.43 83.69 102.03 82.99 102.61 82.29 103.18 81.57 103.73 80.84 104.26 80.09 104.77 79.34 105.27 78.57 105.75 77.79 106.21 77 106.65 76.2 107.07 75.39 107.48 74.58 107.86 73.75 108.22 72.91 108.57 72.07 108.89 71.22 109.2 70.36 109.48 69.5 109.74 68.62 109.99 67.75 110.21 66.87 110.41 65.98 110.59 65.09"/>
      </g>
      <g stroke-width="0.3" fill="#000000" fill-opacity="0.000" class="geometry" stroke-dasharray="none" stroke="#008000" id="img-b4deb56f-14">
        <path fill="none" d="M91.58,57.86 L 91.58 57.42 91.56 56.99 91.54 56.56 91.51 56.13 91.46 55.69 91.41 55.26 91.35 54.84 91.28 54.41 91.2 53.98 91.11 53.56 91.01 53.13 90.9 52.71 90.78 52.3 90.65 51.88 90.52 51.47 90.37 51.06 90.22 50.65 90.05 50.25 89.88 49.85 89.7 49.46 89.51 49.07 89.31 48.68 89.11 48.3 88.89 47.92 88.67 47.54 88.44 47.17 88.2 46.81 87.95 46.45 87.69 46.1 87.43 45.75 87.16 45.41 86.88 45.07 86.6 44.74 86.3 44.42 86 44.1 85.7 43.79 85.38 43.48 85.06 43.18 84.74 42.89 84.4 42.61 84.06 42.33 83.72 42.06 83.37 41.8 83.01 41.55 82.65 41.3 82.28 41.06 81.91 40.83 81.53 40.6 81.14 40.39 80.76 40.18 80.36 39.98 79.97 39.79 79.57 39.61 79.16 39.43 78.75 39.27 78.34 39.11 77.93 38.97 77.51 38.83 77.09 38.7 76.66 38.58 76.24 38.47 75.81 38.36 75.38 38.27 74.94 38.19 74.51 38.11 74.07 38.04 73.64 37.99 73.2 37.94 72.76 37.9 72.32 37.87 71.88 37.86 71.43 37.85 70.99 37.85 70.55 37.85 70.11 37.87 69.67 37.9 69.23 37.94 68.79 37.98 68.35 38.04 67.92 38.11 67.48 38.18 67.05 38.26 66.62 38.36 66.19 38.46 65.76 38.57 65.34 38.69 64.92 38.82 64.5 38.96 64.08 39.1 63.67 39.26 63.26 39.42 62.86 39.6 62.46 39.78 62.06 39.97 61.67 40.17 61.28 40.37 60.9 40.59 60.52 40.81 60.14 41.04 59.78 41.28 59.41 41.53 59.06 41.78 58.7 42.04 58.36 42.31 58.02 42.59 57.69 42.87 57.36 43.17 57.04 43.46 56.72 43.77 56.42 44.08 56.12 44.4 55.82 44.72 55.54 45.05 55.26 45.39 54.99 45.73 54.72 46.08 54.47 46.43 54.22 46.79 53.98 47.15 53.75 47.52 53.52 47.89 53.31 48.27 53.1 48.65 52.9 49.04 52.71 49.43 52.53 49.83 52.36 50.23 52.19 50.63"/>
      </g>
      <g stroke-width="0.3" fill="#000000" fill-opacity="0.000" class="geometry" stroke-dasharray="none" stroke="#008000" id="img-b4deb56f-15">
        <path fill="none" d="M57.21,57.86 L 57.21 58.14 57.22 58.41 57.24 58.69 57.26 58.97 57.28 59.24 57.31 59.52 57.35 59.79 57.39 60.07 57.44 60.34 57.5 60.61 57.56 60.89 57.62 61.16 57.69 61.42 57.77 61.69 57.85 61.96 57.94 62.22 58.03 62.48 58.13 62.74 58.23 63 58.34 63.26 58.45 63.51 58.57 63.77 58.7 64.01 58.83 64.26 58.96 64.51 59.1 64.75 59.24 64.99 59.39 65.22 59.55 65.45 59.71 65.68 59.87 65.91 60.04 66.13 60.21 66.35 60.39 66.57 60.57 66.78 60.75 66.99 60.94 67.2 61.14 67.4 61.34 67.6 61.54 67.79 61.75 67.98 61.96 68.17 62.17 68.35 62.39 68.52 62.61 68.7 62.83 68.86 63.06 69.03 63.29 69.19 63.53 69.34 63.77 69.49 64.01 69.64 64.25 69.78 64.5 69.91 64.75 70.04 65 70.17 65.26 70.29 65.51 70.4 65.77 70.51 66.03 70.62 66.3 70.72 66.56 70.81 66.83 70.9 67.1 70.99 67.37 71.07 67.64 71.14 67.92 71.21 68.19 71.27 68.47 71.33 68.75 71.38 69.03 71.42 69.31 71.46 69.59 71.5 69.87 71.53 70.15 71.55 70.43 71.57 70.71 71.58 71 71.59 71.28 71.59 71.56 71.59 71.85 71.58 72.13 71.56 72.41 71.54 72.69 71.51 72.97 71.48 73.25 71.44 73.53 71.4 73.81 71.35 74.09 71.29 74.36 71.23 74.64 71.17 74.91 71.1 75.18 71.02 75.45 70.94 75.72 70.85 75.99 70.76 76.25 70.66 76.51 70.56 76.78 70.45 77.03 70.34 77.29 70.22 77.54 70.1 77.79 69.97 78.04 69.84 78.29 69.7 78.53 69.55 78.77 69.41 79 69.25 79.24 69.1 79.47 68.94 79.69 68.77 79.92 68.6 80.14 68.42 80.35 68.24 80.56 68.06 80.77 67.87 80.98 67.68 81.18 67.48 81.37 67.28 81.56 67.08 81.75 66.87 81.93 66.66 82.11 66.45 82.29 66.23 82.46 66.01 82.62 65.78 82.78 65.55 82.94 65.32 83.09 65.09"/>
      </g>
      <g stroke-width="0.3" fill="#000000" fill-opacity="0.000" class="geometry" stroke-dasharray="none" stroke="#008000" id="img-b4deb56f-16">
        <path fill="none" d="M82.13,57.86 L 82.13 57.66 82.12 57.45 82.11 57.25 82.1 57.05 82.08 56.85 82.06 56.65 82.04 56.45 82.01 56.25 81.97 56.05 81.94 55.86 81.9 55.66 81.85 55.46 81.81 55.27 81.75 55.07 81.7 54.88 81.64 54.68 81.58 54.49 81.51 54.3 81.44 54.11 81.37 53.92 81.29 53.74 81.21 53.55 81.13 53.37 81.04 53.19 80.95 53 80.85 52.83 80.76 52.65 80.65 52.47 80.55 52.3 80.44 52.13 80.33 51.96 80.22 51.79 80.1 51.63 79.98 51.46 79.85 51.3 79.73 51.15 79.6 50.99 79.47 50.84 79.33 50.69 79.19 50.54 79.05 50.39 78.91 50.25 78.76 50.11 78.61 49.97 78.46 49.83 78.3 49.7 78.15 49.57 77.99 49.45 77.82 49.32 77.66 49.2 77.49 49.08 77.32 48.97 77.15 48.86 76.98 48.75 76.8 48.65 76.63 48.54 76.45 48.45 76.27 48.35 76.09 48.26 75.9 48.17 75.71 48.08 75.53 48 75.34 47.93 75.15 47.85 74.96 47.78 74.76 47.71 74.57 47.65 74.37 47.59 74.18 47.53 73.98 47.48 73.78 47.43 73.58 47.38 73.38 47.34 73.18 47.3 72.97 47.27 72.77 47.24 72.57 47.21 72.36 47.19 72.16 47.17 71.96 47.15 71.75 47.14 71.55 47.13 71.34 47.13 71.14 47.13 70.93 47.13 70.73 47.14 70.52 47.15 70.32 47.16 70.11 47.18 69.91 47.2 69.7 47.23 69.5 47.26 69.3 47.29 69.1 47.33 68.9 47.37 68.7 47.41 68.5 47.46 68.3 47.51 68.1 47.57 67.91 47.63 67.71 47.69 67.52 47.75 67.32 47.82 67.13 47.9 66.94 47.97 66.76 48.05 66.57 48.14 66.38 48.22 66.2 48.31 66.02 48.41 65.84 48.51 65.66 48.61 65.49 48.71 65.31 48.82 65.14 48.93 64.97 49.04 64.8 49.16 64.64 49.28 64.47 49.4 64.31 49.52 64.16 49.65 64 49.78 63.85 49.92 63.7 50.05 63.55 50.19 63.4 50.34 63.26 50.48 63.12 50.63"/>
      </g>
      <g stroke-width="0.3" fill="#000000" fill-opacity="0.000" class="geometry" stroke-dasharray="none" stroke="#008000" id="img-b4deb56f-17">
        <path fill="none" d="M61.97,57.86 L 61.97 58.01 61.98 58.17 61.98 58.33 61.99 58.48 62.01 58.64 62.02 58.8 62.04 58.95 62.06 59.11 62.08 59.26 62.11 59.42 62.14 59.57 62.17 59.73 62.2 59.88 62.24 60.03 62.28 60.19 62.32 60.34 62.37 60.49 62.42 60.64 62.47 60.79 62.52 60.93 62.58 61.08 62.63 61.23 62.69 61.37 62.76 61.52 62.82 61.66 62.89 61.8 62.96 61.94 63.04 62.08 63.11 62.22 63.19 62.36 63.27 62.49 63.35 62.63 63.44 62.76 63.53 62.89 63.62 63.02 63.71 63.15 63.8 63.28 63.9 63.4 64 63.52 64.1 63.65 64.2 63.76 64.31 63.88 64.42 64 64.53 64.11 64.64 64.23 64.75 64.34 64.87 64.45 64.98 64.55 65.1 64.66 65.22 64.76 65.35 64.86 65.47 64.96 65.6 65.06 65.72 65.15 65.85 65.24 65.98 65.33 66.12 65.42 66.25 65.5 66.39 65.59 66.52 65.67 66.66 65.75 66.8 65.82 66.94 65.9 67.09 65.97 67.23 66.04 67.37 66.1 67.52 66.17 67.67 66.23 67.82 66.29 67.97 66.34 68.12 66.4 68.27 66.45 68.42 66.5 68.57 66.54 68.73 66.59 68.88 66.63 69.03 66.66 69.19 66.7 69.35 66.73 69.5 66.76 69.66 66.79 69.82 66.81 69.98 66.84 70.14 66.86 70.29 66.87 70.45 66.89 70.61 66.9 70.77 66.91 70.93 66.91 71.09 66.92 71.25 66.92 71.41 66.91 71.57 66.91 71.73 66.9 71.89 66.89 72.05 66.88 72.21 66.86 72.37 66.84 72.53 66.82 72.68 66.8 72.84 66.77 73 66.74 73.16 66.71 73.31 66.68 73.47 66.64 73.62 66.6 73.78 66.56 73.93 66.51 74.08 66.46 74.23 66.41 74.38 66.36 74.53 66.31 74.68 66.25 74.83 66.19 74.98 66.12 75.12 66.06 75.26 65.99 75.41 65.92 75.55 65.85 75.69 65.77 75.83 65.69 75.97 65.61 76.1 65.53 76.24 65.45 76.37 65.36 76.5 65.27 76.63 65.18 76.76 65.09"/>
      </g>
      <g stroke-width="0.3" fill="#000000" fill-opacity="0.000" class="geometry" stroke-dasharray="none" stroke="#008000" id="img-b4deb56f-18">
        <path fill="none" d="M79.43,57.86 L 79.42 57.73 79.42 57.6 79.42 57.47 79.41 57.34 79.4 57.22 79.39 57.09 79.37 56.96 79.36 56.83 79.34 56.71 79.32 56.58 79.3 56.45 79.28 56.33 79.25 56.2 79.22 56.08 79.19 55.95 79.16 55.83 79.13 55.7 79.09 55.58 79.05 55.46 79.01 55.34 78.97 55.21 78.93 55.09 78.88 54.97 78.83 54.85 78.79 54.73 78.73 54.62 78.68 54.5 78.63 54.38 78.57 54.27 78.51 54.15 78.45 54.04 78.39 53.93 78.32 53.82 78.25 53.71 78.19 53.6 78.12 53.49 78.05 53.38 77.97 53.27 77.9 53.17 77.82 53.07 77.74 52.96 77.66 52.86 77.58 52.76 77.5 52.66 77.41 52.56 77.33 52.47 77.24 52.37 77.15 52.28 77.06 52.19 76.97 52.1 76.87 52.01 76.78 51.92 76.68 51.83 76.58 51.75 76.48 51.67 76.38 51.58 76.28 51.5 76.18 51.43 76.07 51.35 75.96 51.27 75.86 51.2 75.75 51.13 75.64 51.06 75.53 50.99 75.42 50.92 75.31 50.86 75.19 50.8 75.08 50.73 74.96 50.68 74.84 50.62 74.73 50.56 74.61 50.51 74.49 50.46 74.37 50.4 74.25 50.36 74.13 50.31 74 50.27 73.88 50.22 73.76 50.18 73.63 50.14 73.51 50.11 73.38 50.07 73.26 50.04 73.13 50.01 73 49.98 72.87 49.95 72.75 49.93 72.62 49.9 72.49 49.88 72.36 49.86 72.23 49.84 72.1 49.83 71.97 49.82 71.84 49.81 71.71 49.8 71.58 49.79 71.45 49.78 71.32 49.78 71.19 49.78 71.06 49.78 70.93 49.79 70.8 49.79 70.67 49.8 70.53 49.81 70.4 49.82 70.27 49.83 70.15 49.85 70.02 49.87 69.89 49.88 69.76 49.91 69.63 49.93 69.5 49.96 69.37 49.98 69.25 50.01 69.12 50.04 68.99 50.08 68.87 50.11 68.74 50.15 68.62 50.19 68.5 50.23 68.37 50.27 68.25 50.32 68.13 50.37 68.01 50.41 67.89 50.46 67.77 50.52 67.65 50.57 67.53 50.63"/>
      </g>
      <g stroke-width="0.3" fill="#000000" fill-opacity="0.000" class="geometry" stroke-dasharray="none" stroke="#008000" id="img-b4deb56f-19">
        <path fill="none" d="M63.54,57.86 L 63.54 57.97 63.55 58.07 63.55 58.18 63.56 58.29 63.56 58.4 63.57 58.51 63.58 58.62 63.59 58.72 63.61 58.83 63.62 58.94 63.64 59.05 63.66 59.15 63.68 59.26 63.7 59.37 63.72 59.47 63.75 59.58 63.77 59.68 63.8 59.79 63.83 59.89 63.86 60 63.89 60.1 63.93 60.2 63.96 60.31 64 60.41 64.04 60.51 64.08 60.61 64.12 60.71 64.16 60.81 64.2 60.91 64.25 61.01 64.3 61.11 64.35 61.21 64.4 61.3 64.45 61.4 64.5 61.5 64.55 61.59 64.61 61.68 64.67 61.78 64.73 61.87 64.78 61.96 64.85 62.05 64.91 62.14 64.97 62.23 65.04 62.32 65.1 62.4 65.17 62.49 65.24 62.58 65.31 62.66 65.38 62.74 65.45 62.82 65.53 62.91 65.6 62.99 65.68 63.06 65.75 63.14 65.83 63.22 65.91 63.29 65.99 63.37 66.07 63.44 66.16 63.51 66.24 63.58 66.33 63.65 66.41 63.72 66.5 63.79 66.59 63.86 66.67 63.92 66.76 63.98 66.85 64.05 66.95 64.11 67.04 64.17 67.13 64.23 67.23 64.28 67.32 64.34 67.42 64.39 67.51 64.45 67.61 64.5 67.71 64.55 67.81 64.6 67.91 64.64 68.01 64.69 68.11 64.73 68.21 64.78 68.31 64.82 68.41 64.86 68.52 64.9 68.62 64.93 68.72 64.97 68.83 65 68.93 65.04 69.04 65.07 69.15 65.1 69.25 65.13 69.36 65.15 69.47 65.18 69.58 65.2 69.68 65.23 69.79 65.25 69.9 65.27 70.01 65.28 70.12 65.3 70.23 65.31 70.34 65.33 70.45 65.34 70.56 65.35 70.67 65.36 70.78 65.36 70.89 65.37 71 65.37 71.11 65.37 71.22 65.37 71.33 65.37 71.44 65.37 71.55 65.37 71.66 65.36 71.77 65.35 71.88 65.34 71.99 65.33 72.1 65.32 72.21 65.31 72.32 65.29 72.43 65.28 72.54 65.26 72.65 65.24 72.76 65.22 72.87 65.19 72.97 65.17 73.08 65.14 73.19 65.12 73.29 65.09"/>
      </g>
      <g stroke-width="0.3" fill="#000000" fill-opacity="0.000" class="geometry" stroke-dasharray="none" stroke="#008000" id="img-b4deb56f-20">
        <path fill="none" d="M78.59,57.86 L 78.59 57.76 78.59 57.67 78.59 57.57 78.58 57.48 78.58 57.39 78.57 57.29 78.56 57.2 78.55 57.1 78.54 57.01 78.53 56.92 78.52 56.82 78.5 56.73 78.49 56.64 78.47 56.54 78.45 56.45 78.44 56.36 78.41 56.27 78.39 56.17 78.37 56.08 78.35 55.99 78.32 55.9 78.29 55.81 78.27 55.72 78.24 55.63 78.21 55.54 78.18 55.45 78.14 55.36 78.11 55.27 78.08 55.19 78.04 55.1 78 55.01 77.96 54.92 77.92 54.84 77.88 54.75 77.84 54.67 77.8 54.58 77.76 54.5 77.71 54.42 77.66 54.33 77.62 54.25 77.57 54.17 77.52 54.09 77.47 54.01 77.42 53.93 77.37 53.85 77.31 53.77 77.26 53.69 77.2 53.62 77.15 53.54 77.09 53.47 77.03 53.39 76.97 53.32 76.91 53.24 76.85 53.17 76.78 53.1 76.72 53.03 76.66 52.96 76.59 52.89 76.53 52.82 76.46 52.75 76.39 52.69 76.32 52.62 76.25 52.56 76.18 52.49 76.11 52.43 76.04 52.37 75.96 52.31 75.89 52.25 75.82 52.19 75.74 52.13 75.66 52.07 75.59 52.01 75.51 51.96 75.43 51.9 75.35 51.85 75.27 51.8 75.19 51.75 75.11 51.7 75.03 51.65 74.95 51.6 74.86 51.55 74.78 51.5 74.69 51.46 74.61 51.42 74.52 51.37 74.44 51.33 74.35 51.29 74.26 51.25 74.18 51.21 74.09 51.17 74 51.14 73.91 51.1 73.82 51.07 73.73 51.04 73.64 51 73.55 50.97 73.46 50.94 73.37 50.92 73.27 50.89 73.18 50.86 73.09 50.84 73 50.81 72.9 50.79 72.81 50.77 72.72 50.75 72.62 50.73 72.53 50.71 72.43 50.7 72.34 50.68 72.24 50.67 72.15 50.66 72.05 50.65 71.96 50.64 71.86 50.63 71.76 50.62 71.67 50.61 71.57 50.61 71.48 50.6 71.38 50.6 71.28 50.6 71.19 50.6 71.09 50.6 71 50.6 70.9 50.6 70.8 50.61 70.71 50.61 70.61 50.62 70.52 50.63"/>
      </g>
      <g stroke-width="0.3" fill="#000000" fill-opacity="0.000" class="geometry" stroke-dasharray="none" stroke="#008000" id="img-b4deb56f-21">
        <path fill="none" d="M63.8,57.86 L 63.8 57.94 63.81 58.03 63.81 58.11 63.81 58.19 63.82 58.28 63.82 58.36 63.83 58.44 63.84 58.53 63.84 58.61 63.85 58.69 63.86 58.78 63.87 58.86 63.89 58.94 63.9 59.03 63.91 59.11 63.93 59.19 63.95 59.27 63.96 59.36 63.98 59.44 64 59.52 64.02 59.6 64.04 59.68 64.06 59.76 64.09 59.84 64.11 59.92 64.13 60.01 64.16 60.09 64.19 60.16 64.21 60.24 64.24 60.32 64.27 60.4 64.3 60.48 64.33 60.56 64.37 60.64 64.4 60.71 64.43 60.79 64.47 60.87 64.5 60.94 64.54 61.02 64.58 61.09 64.62 61.17 64.66 61.24 64.7 61.32 64.74 61.39 64.78 61.46 64.82 61.54 64.87 61.61 64.91 61.68 64.96 61.75 65 61.82 65.05 61.89 65.1 61.96 65.15 62.03 65.2 62.1 65.25 62.17 65.3 62.23 65.35 62.3 65.4 62.37 65.46 62.43 65.51 62.5 65.56 62.56 65.62 62.62 65.68 62.69 65.73 62.75 65.79 62.81 65.85 62.87 65.91 62.93 65.97 62.99 66.03 63.05 66.09 63.11 66.15 63.17 66.22 63.22 66.28 63.28 66.34 63.33 66.41 63.39 66.47 63.44 66.54 63.5 66.61 63.55 66.67 63.6 66.74 63.65 66.81 63.7 66.88 63.75 66.95 63.8 67.02 63.85 67.09 63.89 67.16 63.94 67.23 63.99 67.31 64.03 67.38 64.07 67.45 64.12 67.53 64.16 67.6 64.2 67.68 64.24 67.75 64.28 67.83 64.32 67.9 64.36 67.98 64.39 68.06 64.43 68.13 64.47 68.21 64.5 68.29 64.53 68.37 64.57 68.45 64.6 68.53 64.63 68.61 64.66 68.69 64.69 68.77 64.71 68.85 64.74 68.93 64.77 69.01 64.79 69.09 64.82 69.18 64.84 69.26 64.86 69.34 64.88 69.42 64.91 69.51 64.93 69.59 64.94 69.67 64.96 69.76 64.98 69.84 64.99 69.92 65.01 70.01 65.02 70.09 65.04 70.18 65.05 70.26 65.06 70.35 65.07 70.43 65.08 70.52 65.09"/>
      </g>
      <g stroke-width="0.3" fill="#000000" fill-opacity="0.000" class="geometry" stroke-dasharray="none" stroke="#008000" id="img-b4deb56f-22">
        <path fill="none" d="M78.86,57.86 L 78.85 57.78 78.85 57.71 78.85 57.63 78.85 57.55 78.85 57.48 78.84 57.4 78.84 57.33 78.83 57.25 78.82 57.17 78.82 57.1 78.81 57.02 78.8 56.95 78.79 56.87 78.78 56.8 78.77 56.72 78.76 56.65 78.74 56.57 78.73 56.5 78.71 56.42 78.7 56.35 78.68 56.27 78.67 56.2 78.65 56.13 78.63 56.05 78.61 55.98 78.59 55.91 78.57 55.83 78.55 55.76 78.53 55.69 78.51 55.61 78.48 55.54 78.46 55.47 78.43 55.4 78.41 55.33 78.38 55.25 78.35 55.18 78.33 55.11 78.3 55.04 78.27 54.97 78.24 54.9 78.21 54.83 78.18 54.76 78.14 54.69 78.11 54.62 78.08 54.56 78.04 54.49 78.01 54.42 77.97 54.35 77.94 54.29 77.9 54.22 77.86 54.15 77.82 54.09 77.78 54.02 77.74 53.96 77.7 53.89 77.66 53.83 77.62 53.76 77.58 53.7 77.53 53.64 77.49 53.57 77.45 53.51 77.4 53.45 77.36 53.39 77.31 53.33 77.26 53.27 77.21 53.21 77.17 53.15 77.12 53.09 77.07 53.03 77.02 52.97 76.97 52.92 76.92 52.86 76.86 52.8 76.81 52.75 76.76 52.69 76.71 52.64 76.65 52.58 76.6 52.53 76.54 52.47 76.49 52.42 76.43 52.37 76.37 52.32 76.32 52.27 76.26 52.22 76.2 52.17 76.14 52.12 76.08 52.07 76.02 52.02 75.96 51.97 75.9 51.93 75.84 51.88 75.78 51.83 75.72 51.79 75.65 51.74 75.59 51.7 75.53 51.66 75.46 51.61 75.4 51.57 75.33 51.53 75.27 51.49 75.2 51.45 75.14 51.41 75.07 51.37 75 51.33 74.93 51.3 74.87 51.26 74.8 51.22 74.73 51.19 74.66 51.15 74.59 51.12 74.52 51.09 74.45 51.05 74.38 51.02 74.31 50.99 74.24 50.96 74.17 50.93 74.1 50.9 74.03 50.87 73.95 50.84 73.88 50.82 73.81 50.79 73.74 50.77 73.66 50.74 73.59 50.72 73.52 50.69 73.44 50.67 73.37 50.65 73.29 50.63"/>
      </g>
      <g stroke-width="0.3" fill="#000000" fill-opacity="0.000" class="geometry" stroke-dasharray="none" stroke="#008000" id="img-b4deb56f-23">
        <path fill="none" d="M62.97,57.86 L 62.97 57.93 62.97 58 62.98 58.07 62.98 58.14 62.98 58.21 62.98 58.28 62.99 58.35 62.99 58.42 63 58.49 63 58.56 63.01 58.63 63.02 58.7 63.03 58.77 63.03 58.83 63.04 58.9 63.05 58.97 63.06 59.04 63.07 59.11 63.08 59.18 63.1 59.25 63.11 59.32 63.12 59.39 63.14 59.46 63.15 59.52 63.17 59.59 63.18 59.66 63.2 59.73 63.21 59.8 63.23 59.87 63.25 59.93 63.27 60 63.29 60.07 63.31 60.13 63.33 60.2 63.35 60.27 63.37 60.34 63.39 60.4 63.41 60.47 63.44 60.53 63.46 60.6 63.49 60.67 63.51 60.73 63.54 60.8 63.56 60.86 63.59 60.93 63.62 60.99 63.65 61.06 63.67 61.12 63.7 61.18 63.73 61.25 63.76 61.31 63.79 61.37 63.82 61.44 63.86 61.5 63.89 61.56 63.92 61.62 63.96 61.69 63.99 61.75 64.02 61.81 64.06 61.87 64.1 61.93 64.13 61.99 64.17 62.05 64.21 62.11 64.24 62.17 64.28 62.23 64.32 62.29 64.36 62.34 64.4 62.4 64.44 62.46 64.48 62.52 64.52 62.57 64.56 62.63 64.61 62.69 64.65 62.74 64.69 62.8 64.74 62.85 64.78 62.91 64.83 62.96 64.87 63.02 64.92 63.07 64.96 63.12 65.01 63.18 65.06 63.23 65.1 63.28 65.15 63.33 65.2 63.38 65.25 63.43 65.3 63.49 65.35 63.54 65.4 63.58 65.45 63.63 65.5 63.68 65.55 63.73 65.6 63.78 65.66 63.83 65.71 63.87 65.76 63.92 65.82 63.97 65.87 64.01 65.93 64.06 65.98 64.1 66.04 64.14 66.09 64.19 66.15 64.23 66.2 64.27 66.26 64.32 66.32 64.36 66.38 64.4 66.43 64.44 66.49 64.48 66.55 64.52 66.61 64.56 66.67 64.6 66.73 64.64 66.79 64.67 66.85 64.71 66.91 64.75 66.97 64.78 67.03 64.82 67.09 64.86 67.15 64.89 67.22 64.92 67.28 64.96 67.34 64.99 67.41 65.02 67.47 65.06 67.53 65.09"/>
      </g>
      <g stroke-width="0.3" fill="#000000" fill-opacity="0.000" class="geometry" stroke-dasharray="none" stroke="#008000" id="img-b4deb56f-24">
        <path fill="none" d="M80.43,57.86 L 80.43 57.79 80.43 57.73 80.42 57.66 80.42 57.6 80.42 57.53 80.42 57.47 80.41 57.4 80.41 57.33 80.41 57.27 80.4 57.2 80.4 57.14 80.39 57.07 80.39 57.01 80.38 56.94 80.37 56.88 80.37 56.81 80.36 56.75 80.35 56.68 80.34 56.62 80.33 56.55 80.32 56.49 80.31 56.42 80.3 56.36 80.29 56.3 80.28 56.23 80.26 56.17 80.25 56.1 80.24 56.04 80.23 55.97 80.21 55.91 80.2 55.85 80.18 55.78 80.17 55.72 80.15 55.66 80.13 55.59 80.12 55.53 80.1 55.47 80.08 55.4 80.06 55.34 80.04 55.28 80.03 55.22 80.01 55.15 79.99 55.09 79.97 55.03 79.94 54.97 79.92 54.9 79.9 54.84 79.88 54.78 79.86 54.72 79.83 54.66 79.81 54.6 79.78 54.54 79.76 54.48 79.73 54.41 79.71 54.35 79.68 54.29 79.66 54.23 79.63 54.17 79.6 54.11 79.57 54.06 79.55 54 79.52 53.94 79.49 53.88 79.46 53.82 79.43 53.76 79.4 53.7 79.37 53.64 79.34 53.59 79.31 53.53 79.27 53.47 79.24 53.41 79.21 53.36 79.17 53.3 79.14 53.24 79.11 53.19 79.07 53.13 79.04 53.08 79 53.02 78.97 52.97 78.93 52.91 78.89 52.86 78.86 52.8 78.82 52.75 78.78 52.69 78.74 52.64 78.7 52.59 78.67 52.53 78.63 52.48 78.59 52.43 78.55 52.38 78.51 52.33 78.47 52.27 78.42 52.22 78.38 52.17 78.34 52.12 78.3 52.07 78.26 52.02 78.21 51.97 78.17 51.92 78.13 51.87 78.08 51.82 78.04 51.77 77.99 51.73 77.95 51.68 77.9 51.63 77.85 51.58 77.81 51.54 77.76 51.49 77.71 51.44 77.67 51.4 77.62 51.35 77.57 51.31 77.52 51.26 77.47 51.22 77.43 51.17 77.38 51.13 77.33 51.08 77.28 51.04 77.23 51 77.18 50.96 77.12 50.91 77.07 50.87 77.02 50.83 76.97 50.79 76.92 50.75 76.87 50.71 76.81 50.67 76.76 50.63"/>
      </g>
      <g stroke-width="0.3" fill="#000000" fill-opacity="0.000" class="geometry" stroke-dasharray="none" stroke="#008000" id="img-b4deb56f-25">
        <path fill="none" d="M60.27,57.86 L 60.27 57.92 60.27 57.98 60.27 58.04 60.27 58.11 60.27 58.17 60.28 58.23 60.28 58.29 60.28 58.35 60.28 58.42 60.29 58.48 60.29 58.54 60.3 58.6 60.3 58.66 60.3 58.72 60.31 58.79 60.32 58.85 60.32 58.91 60.33 58.97 60.33 59.03 60.34 59.09 60.35 59.16 60.36 59.22 60.37 59.28 60.37 59.34 60.38 59.4 60.39 59.46 60.4 59.52 60.41 59.59 60.42 59.65 60.43 59.71 60.44 59.77 60.46 59.83 60.47 59.89 60.48 59.95 60.49 60.01 60.5 60.07 60.52 60.13 60.53 60.19 60.54 60.25 60.56 60.31 60.57 60.37 60.59 60.43 60.6 60.5 60.62 60.56 60.64 60.61 60.65 60.67 60.67 60.73 60.69 60.79 60.7 60.85 60.72 60.91 60.74 60.97 60.76 61.03 60.78 61.09 60.8 61.15 60.82 61.21 60.84 61.27 60.86 61.33 60.88 61.39 60.9 61.44 60.92 61.5 60.94 61.56 60.96 61.62 60.98 61.68 61.01 61.73 61.03 61.79 61.05 61.85 61.08 61.91 61.1 61.96 61.13 62.02 61.15 62.08 61.17 62.14 61.2 62.19 61.23 62.25 61.25 62.31 61.28 62.36 61.3 62.42 61.33 62.47 61.36 62.53 61.39 62.59 61.41 62.64 61.44 62.7 61.47 62.75 61.5 62.81 61.53 62.86 61.56 62.92 61.59 62.97 61.62 63.03 61.65 63.08 61.68 63.13 61.71 63.19 61.74 63.24 61.78 63.29 61.81 63.35 61.84 63.4 61.87 63.45 61.91 63.51 61.94 63.56 61.97 63.61 62.01 63.66 62.04 63.72 62.08 63.77 62.11 63.82 62.15 63.87 62.18 63.92 62.22 63.97 62.25 64.02 62.29 64.07 62.33 64.12 62.36 64.18 62.4 64.23 62.44 64.27 62.48 64.32 62.51 64.37 62.55 64.42 62.59 64.47 62.63 64.52 62.67 64.57 62.71 64.62 62.75 64.67 62.79 64.71 62.83 64.76 62.87 64.81 62.91 64.86 62.95 64.9 63 64.95 63.04 64.99 63.08 65.04 63.12 65.09"/>
      </g>
      <g stroke-width="0.3" fill="#000000" fill-opacity="0.000" class="geometry" stroke-dasharray="none" stroke="#008000" id="img-b4deb56f-26">
        <path fill="none" d="M85.19,57.86 L 85.19 57.8 85.19 57.74 85.19 57.68 85.18 57.62 85.18 57.56 85.18 57.5 85.18 57.44 85.18 57.38 85.18 57.32 85.17 57.26 85.17 57.2 85.17 57.14 85.16 57.08 85.16 57.03 85.16 56.97 85.15 56.91 85.15 56.85 85.14 56.79 85.14 56.73 85.13 56.67 85.13 56.61 85.12 56.55 85.12 56.49 85.11 56.43 85.11 56.37 85.1 56.31 85.09 56.26 85.08 56.2 85.08 56.14 85.07 56.08 85.06 56.02 85.05 55.96 85.04 55.9 85.04 55.84 85.03 55.78 85.02 55.72 85.01 55.67 85 55.61 84.99 55.55 84.98 55.49 84.97 55.43 84.96 55.37 84.95 55.31 84.93 55.26 84.92 55.2 84.91 55.14 84.9 55.08 84.89 55.02 84.87 54.96 84.86 54.91 84.85 54.85 84.83 54.79 84.82 54.73 84.81 54.67 84.79 54.62 84.78 54.56 84.76 54.5 84.75 54.44 84.73 54.39 84.72 54.33 84.7 54.27 84.69 54.21 84.67 54.16 84.65 54.1 84.64 54.04 84.62 53.98 84.6 53.93 84.58 53.87 84.57 53.81 84.55 53.76 84.53 53.7 84.51 53.64 84.49 53.59 84.47 53.53 84.46 53.47 84.44 53.42 84.42 53.36 84.4 53.31 84.38 53.25 84.36 53.19 84.34 53.14 84.31 53.08 84.29 53.03 84.27 52.97 84.25 52.92 84.23 52.86 84.21 52.8 84.18 52.75 84.16 52.69 84.14 52.64 84.11 52.58 84.09 52.53 84.07 52.47 84.04 52.42 84.02 52.36 84 52.31 83.97 52.26 83.95 52.2 83.92 52.15 83.9 52.09 83.87 52.04 83.84 51.99 83.82 51.93 83.79 51.88 83.77 51.83 83.74 51.77 83.71 51.72 83.68 51.67 83.66 51.61 83.63 51.56 83.6 51.51 83.57 51.45 83.54 51.4 83.52 51.35 83.49 51.3 83.46 51.24 83.43 51.19 83.4 51.14 83.37 51.09 83.34 51.04 83.31 50.99 83.28 50.93 83.25 50.88 83.22 50.83 83.19 50.78 83.16 50.73 83.12 50.68 83.09 50.63"/>
      </g>
      <g stroke-width="0.3" fill="#000000" fill-opacity="0.000" class="geometry" stroke-dasharray="none" stroke="#008000" id="img-b4deb56f-27">
        <path fill="none" d="M50.81,57.86 L 50.81 57.92 50.82 57.97 50.82 58.03 50.82 58.09 50.82 58.15 50.82 58.2 50.82 58.26 50.82 58.32 50.82 58.38 50.82 58.44 50.83 58.49 50.83 58.55 50.83 58.61 50.83 58.67 50.83 58.72 50.84 58.78 50.84 58.84 50.84 58.9 50.85 58.95 50.85 59.01 50.85 59.07 50.86 59.13 50.86 59.19 50.86 59.24 50.87 59.3 50.87 59.36 50.88 59.42 50.88 59.47 50.89 59.53 50.89 59.59 50.9 59.65 50.9 59.7 50.91 59.76 50.91 59.82 50.92 59.88 50.92 59.93 50.93 59.99 50.94 60.05 50.94 60.11 50.95 60.16 50.96 60.22 50.96 60.28 50.97 60.34 50.98 60.39 50.99 60.45 50.99 60.51 51 60.57 51.01 60.62 51.02 60.68 51.03 60.74 51.04 60.79 51.04 60.85 51.05 60.91 51.06 60.97 51.07 61.02 51.08 61.08 51.09 61.14 51.1 61.19 51.11 61.25 51.12 61.31 51.13 61.36 51.14 61.42 51.15 61.48 51.16 61.53 51.17 61.59 51.18 61.65 51.2 61.71 51.21 61.76 51.22 61.82 51.23 61.88 51.24 61.93 51.25 61.99 51.27 62.04 51.28 62.1 51.29 62.16 51.3 62.21 51.32 62.27 51.33 62.33 51.34 62.38 51.36 62.44 51.37 62.5 51.38 62.55 51.4 62.61 51.41 62.66 51.43 62.72 51.44 62.78 51.45 62.83 51.47 62.89 51.48 62.94 51.5 63 51.51 63.06 51.53 63.11 51.55 63.17 51.56 63.22 51.58 63.28 51.59 63.33 51.61 63.39 51.63 63.45 51.64 63.5 51.66 63.56 51.68 63.61 51.69 63.67 51.71 63.72 51.73 63.78 51.74 63.83 51.76 63.89 51.78 63.94 51.8 64 51.82 64.05 51.83 64.11 51.85 64.16 51.87 64.22 51.89 64.27 51.91 64.33 51.93 64.38 51.95 64.44 51.97 64.49 51.99 64.55 52.01 64.6 52.03 64.65 52.05 64.71 52.07 64.76 52.09 64.82 52.11 64.87 52.13 64.93 52.15 64.98 52.17 65.03 52.19 65.09"/>
      </g>
      <g stroke-width="0.3" fill="#000000" fill-opacity="0.000" class="geometry" stroke-dasharray="none" stroke="#008000" id="img-b4deb56f-28">
        <path fill="none" d="M111.27,57.86 L 111.27 57.8 111.27 57.74 111.27 57.69 111.27 57.63 111.27 57.57 111.27 57.52 111.27 57.46 111.27 57.4 111.27 57.35 111.27 57.29 111.27 57.23 111.27 57.18 111.27 57.12 111.27 57.06 111.26 57.01 111.26 56.95 111.26 56.89 111.26 56.84 111.26 56.78 111.26 56.72 111.26 56.66 111.25 56.61 111.25 56.55 111.25 56.49 111.25 56.44 111.25 56.38 111.24 56.32 111.24 56.27 111.24 56.21 111.24 56.15 111.23 56.1 111.23 56.04 111.23 55.98 111.23 55.93 111.22 55.87 111.22 55.81 111.22 55.76 111.21 55.7 111.21 55.64 111.21 55.59 111.2 55.53 111.2 55.47 111.2 55.42 111.19 55.36 111.19 55.3 111.19 55.25 111.18 55.19 111.18 55.13 111.17 55.08 111.17 55.02 111.17 54.96 111.16 54.91 111.16 54.85 111.15 54.79 111.15 54.74 111.14 54.68 111.14 54.62 111.13 54.57 111.13 54.51 111.12 54.45 111.12 54.4 111.11 54.34 111.11 54.28 111.1 54.23 111.1 54.17 111.09 54.11 111.09 54.06 111.08 54 111.07 53.94 111.07 53.89 111.06 53.83 111.06 53.77 111.05 53.72 111.05 53.66 111.04 53.61 111.03 53.55 111.03 53.49 111.02 53.44 111.01 53.38 111.01 53.32 111 53.27 110.99 53.21 110.99 53.15 110.98 53.1 110.97 53.04 110.97 52.98 110.96 52.93 110.95 52.87 110.94 52.82 110.94 52.76 110.93 52.7 110.92 52.65 110.91 52.59 110.91 52.53 110.9 52.48 110.89 52.42 110.88 52.37 110.87 52.31 110.87 52.25 110.86 52.2 110.85 52.14 110.84 52.08 110.83 52.03 110.82 51.97 110.81 51.92 110.81 51.86 110.8 51.8 110.79 51.75 110.78 51.69 110.77 51.64 110.76 51.58 110.75 51.52 110.74 51.47 110.73 51.41 110.72 51.36 110.71 51.3 110.7 51.24 110.69 51.19 110.68 51.13 110.67 51.08 110.66 51.02 110.65 50.96 110.64 50.91 110.63 50.85 110.62 50.8 110.61 50.74 110.6 50.68 110.59 50.63"/>
      </g>
      <g stroke-width="0.3" fill="#000000" fill-opacity="0.000" class="geometry" stroke-dasharray="none" stroke="#00BFFF" id="img-b4deb56f-29">
        <path fill="none" d="M71.2,57.86 L 110.37 65.05"/>
      </g>
      <g stroke-width="0.3" fill="#000000" fill-opacity="0.000" class="geometry" stroke-dasharray="none" stroke="#00BFFF" id="img-b4deb56f-30">
        <path fill="none" d="M34.04,43.73 L 71.2 57.86"/>
      </g>
      <g stroke-width="0.3" fill="#000000" fill-opacity="0.000" class="geometry" stroke-dasharray="none" stroke="#00BFFF" id="img-b4deb56f-31">
        <path fill="none" d="M71.2,57.86 L 105.08 78.45"/>
      </g>
      <g stroke-width="0.3" fill="#000000" fill-opacity="0.000" class="geometry" stroke-dasharray="none" stroke="#00BFFF" id="img-b4deb56f-32">
        <path fill="none" d="M41.75,31.5 L 71.2 57.86"/>
      </g>
      <g stroke-width="0.3" fill="#000000" fill-opacity="0.000" class="geometry" stroke-dasharray="none" stroke="#00BFFF" id="img-b4deb56f-33">
        <path fill="none" d="M71.2,57.86 L 95.21 89.08"/>
      </g>
      <g stroke-width="0.3" fill="#000000" fill-opacity="0.000" class="geometry" stroke-dasharray="none" stroke="#00BFFF" id="img-b4deb56f-34">
        <path fill="none" d="M53.44,22.84 L 71.2 57.86"/>
      </g>
      <g stroke-width="0.3" fill="#000000" fill-opacity="0.000" class="geometry" stroke-dasharray="none" stroke="#00BFFF" id="img-b4deb56f-35">
        <path fill="none" d="M71.2,57.86 L 82.1 95.49"/>
      </g>
      <g stroke-width="0.3" fill="#000000" fill-opacity="0.000" class="geometry" stroke-dasharray="none" stroke="#00BFFF" id="img-b4deb56f-36">
        <path fill="none" d="M67.52,18.9 L 71.2 57.86"/>
      </g>
      <g stroke-width="0.3" fill="#000000" fill-opacity="0.000" class="geometry" stroke-dasharray="none" stroke="#00BFFF" id="img-b4deb56f-37">
        <path fill="none" d="M67.52,96.81 L 71.2 57.86"/>
      </g>
      <g stroke-width="0.3" fill="#000000" fill-opacity="0.000" class="geometry" stroke-dasharray="none" stroke="#00BFFF" id="img-b4deb56f-38">
        <path fill="none" d="M71.2,57.86 L 82.1 20.23"/>
      </g>
      <g stroke-width="0.3" fill="#000000" fill-opacity="0.000" class="geometry" stroke-dasharray="none" stroke="#00BFFF" id="img-b4deb56f-39">
        <path fill="none" d="M53.44,92.88 L 71.2 57.86"/>
      </g>
      <g stroke-width="0.3" fill="#000000" fill-opacity="0.000" class="geometry" stroke-dasharray="none" stroke="#00BFFF" id="img-b4deb56f-40">
        <path fill="none" d="M71.2,57.86 L 95.21 26.64"/>
      </g>
      <g stroke-width="0.3" fill="#000000" fill-opacity="0.000" class="geometry" stroke-dasharray="none" stroke="#00BFFF" id="img-b4deb56f-41">
        <path fill="none" d="M41.75,84.21 L 71.2 57.86"/>
      </g>
      <g stroke-width="0.3" fill="#000000" fill-opacity="0.000" class="geometry" stroke-dasharray="none" stroke="#00BFFF" id="img-b4deb56f-42">
        <path fill="none" d="M71.2,57.86 L 105.08 37.26"/>
      </g>
      <g stroke-width="0.3" fill="#000000" fill-opacity="0.000" class="geometry" stroke-dasharray="none" stroke="#00BFFF" id="img-b4deb56f-43">
        <path fill="none" d="M34.04,71.99 L 71.2 57.86"/>
      </g>
      <g stroke-width="0.3" fill="#000000" fill-opacity="0.000" class="geometry" stroke-dasharray="none" stroke="#00BFFF" id="img-b4deb56f-44">
        <path fill="none" d="M71.2,57.86 L 110.37 50.67"/>
      </g>
      <g class="geometry" stroke="#000000" stroke-opacity="0.000" fill="#4C404B" font-size="2.82" font-family="'PT Sans Caption','Helvetica Neue','Helvetica',sans-serif" id="img-b4deb56f-45">
        <text x="113.04" y="67.38" text-anchor="middle" dy="0.35em" visibility="visible">16</text>
      </g>
      <g class="geometry" stroke="#000000" stroke-opacity="0.000" fill="#4C404B" font-size="2.82" font-family="'PT Sans Caption','Helvetica Neue','Helvetica',sans-serif" id="img-b4deb56f-46">
        <text x="31.37" y="43.78" text-anchor="middle" dy="0.35em" visibility="hidden">15</text>
      </g>
      <g class="geometry" stroke="#000000" stroke-opacity="0.000" fill="#4C404B" font-size="2.82" font-family="'PT Sans Caption','Helvetica Neue','Helvetica',sans-serif" id="img-b4deb56f-47">
        <text x="107.75" y="80.79" text-anchor="middle" dy="0.35em" visibility="visible">14</text>
      </g>
      <g class="geometry" stroke="#000000" stroke-opacity="0.000" fill="#4C404B" font-size="2.82" font-family="'PT Sans Caption','Helvetica Neue','Helvetica',sans-serif" id="img-b4deb56f-48">
        <text x="44.43" y="33.84" text-anchor="middle" dy="0.35em" visibility="visible">13</text>
      </g>
      <g class="geometry" stroke="#000000" stroke-opacity="0.000" fill="#4C404B" font-size="2.82" font-family="'PT Sans Caption','Helvetica Neue','Helvetica',sans-serif" id="img-b4deb56f-49">
        <text x="97.89" y="91.41" text-anchor="middle" dy="0.35em" visibility="visible">12</text>
      </g>
      <g class="geometry" stroke="#000000" stroke-opacity="0.000" fill="#4C404B" font-size="2.82" font-family="'PT Sans Caption','Helvetica Neue','Helvetica',sans-serif" id="img-b4deb56f-50">
        <text x="56.11" y="25.17" text-anchor="middle" dy="0.35em" visibility="visible">11</text>
      </g>
      <g class="geometry" stroke="#000000" stroke-opacity="0.000" fill="#4C404B" font-size="2.82" font-family="'PT Sans Caption','Helvetica Neue','Helvetica',sans-serif" id="img-b4deb56f-51">
        <text x="84.78" y="97.82" text-anchor="middle" dy="0.35em" visibility="visible">10</text>
      </g>
      <g class="geometry" stroke="#000000" stroke-opacity="0.000" fill="#4C404B" font-size="2.82" font-family="'PT Sans Caption','Helvetica Neue','Helvetica',sans-serif" id="img-b4deb56f-52">
        <text x="69.36" y="21.24" text-anchor="middle" dy="0.35em" visibility="visible">9</text>
      </g>
      <g class="geometry" stroke="#000000" stroke-opacity="0.000" fill="#4C404B" font-size="2.82" font-family="'PT Sans Caption','Helvetica Neue','Helvetica',sans-serif" id="img-b4deb56f-53">
        <text x="69.36" y="99.15" text-anchor="middle" dy="0.35em" visibility="visible">8</text>
      </g>
      <g class="geometry" stroke="#000000" stroke-opacity="0.000" fill="#4C404B" font-size="2.82" font-family="'PT Sans Caption','Helvetica Neue','Helvetica',sans-serif" id="img-b4deb56f-54">
        <text x="83.94" y="22.57" text-anchor="middle" dy="0.35em" visibility="visible">7</text>
      </g>
      <g class="geometry" stroke="#000000" stroke-opacity="0.000" fill="#4C404B" font-size="2.82" font-family="'PT Sans Caption','Helvetica Neue','Helvetica',sans-serif" id="img-b4deb56f-55">
        <text x="55.27" y="95.21" text-anchor="middle" dy="0.35em" visibility="visible">6</text>
      </g>
      <g class="geometry" stroke="#000000" stroke-opacity="0.000" fill="#4C404B" font-size="2.82" font-family="'PT Sans Caption','Helvetica Neue','Helvetica',sans-serif" id="img-b4deb56f-56">
        <text x="97.05" y="28.97" text-anchor="middle" dy="0.35em" visibility="visible">5</text>
      </g>
      <g class="geometry" stroke="#000000" stroke-opacity="0.000" fill="#4C404B" font-size="2.82" font-family="'PT Sans Caption','Helvetica Neue','Helvetica',sans-serif" id="img-b4deb56f-57">
        <text x="43.59" y="86.55" text-anchor="middle" dy="0.35em" visibility="visible">4</text>
      </g>
      <g class="geometry" stroke="#000000" stroke-opacity="0.000" fill="#4C404B" font-size="2.82" font-family="'PT Sans Caption','Helvetica Neue','Helvetica',sans-serif" id="img-b4deb56f-58">
        <text x="106.91" y="39.6" text-anchor="middle" dy="0.35em" visibility="visible">3</text>
      </g>
      <g class="geometry" stroke="#000000" stroke-opacity="0.000" fill="#4C404B" font-size="2.82" font-family="'PT Sans Caption','Helvetica Neue','Helvetica',sans-serif" id="img-b4deb56f-59">
        <text x="35.88" y="74.33" text-anchor="middle" dy="0.35em" visibility="hidden">2</text>
      </g>
      <g class="geometry" stroke="#000000" stroke-opacity="0.000" fill="#4C404B" font-size="2.82" font-family="'PT Sans Caption','Helvetica Neue','Helvetica',sans-serif" id="img-b4deb56f-60">
        <text x="112.2" y="53.01" text-anchor="middle" dy="0.35em" visibility="visible">1</text>
      </g>
      <g stroke-width="0.3" fill="#000000" fill-opacity="0.000" class="geometry" stroke-dasharray="none" stroke="#00BFFF" id="img-b4deb56f-61">
        <path fill="none" d="M111.05,57.86 L 111 55.94 110.85 54.02 110.61 52.12 110.28 50.23 109.85 48.35 109.33 46.5 108.72 44.68 108.01 42.89 107.22 41.13 106.34 39.42 105.38 37.75 104.33 36.12 103.2 34.55 102 33.04 100.72 31.59 99.38 30.19 97.96 28.87 96.48 27.62 94.94 26.44 93.34 25.33 91.68 24.3 89.98 23.36 88.24 22.49 86.45 21.71 84.62 21.02 82.77 20.42 80.88 19.91 78.97 19.49 77.05 19.16 75.1 18.92 73.15 18.78 71.2 18.74 69.24 18.78 67.29 18.92 65.35 19.16 63.43 19.49 61.52 19.91 59.63 20.42 57.78 21.02 55.95 21.71 54.16 22.49 52.42 23.36 50.71 24.3 49.06 25.33 47.46 26.44 45.92 27.62 44.44 28.87 43.02 30.19 41.67 31.59 40.4 33.04 39.19 34.55 38.07 36.12 37.02 37.75 36.06 39.42 35.18 41.13 34.39 42.89 33.68 44.68 33.07 46.5 32.55 48.35 32.12 50.23 31.78 52.12 31.54 54.02 31.4 55.94 31.35 57.86 31.4 59.78 31.54 61.69 31.78 63.6 32.12 65.49 32.55 67.36 33.07 69.21 33.68 71.04 34.39 72.83 35.18 74.58 36.06 76.3 37.02 77.97 38.07 79.59 39.19 81.16 40.4 82.68 41.67 84.13 43.02 85.52 44.44 86.84 45.92 88.1 47.46 89.28 49.06 90.39 50.71 91.41 52.42 92.36 54.16 93.22 55.95 94 57.78 94.69 59.63 95.29 61.52 95.81 63.43 96.23 65.35 96.56 67.29 96.79 69.24 96.93 71.2 96.98 73.15 96.93 75.1 96.79 77.05 96.56 78.97 96.23 80.88 95.81 82.77 95.29 84.62 94.69 86.45 94 88.24 93.22 89.98 92.36 91.68 91.41 93.34 90.39 94.94 89.28 96.48 88.1 97.96 86.84 99.38 85.52 100.72 84.13 102 82.68 103.2 81.16 104.33 79.59 105.38 77.97 106.34 76.3 107.22 74.58 108.01 72.83 108.72 71.04 109.33 69.21 109.85 67.36 110.28 65.49 110.61 63.6 110.85 61.69 111 59.78 111.05 57.86"/>
      </g>
      <g class="xfixed" stroke-dasharray="none" stroke-width="0.3" stroke="#808080" id="img-b4deb56f-62">
        <path fill="none" d="M17.4,65.09 L 125 65.09"/>
      </g>
      <g class="xfixed" stroke-dasharray="none" stroke-width="0.3" stroke="#808080" id="img-b4deb56f-63">
        <path fill="none" d="M17.4,50.63 L 125 50.63"/>
      </g>
      <g class="geometry" stroke="#000000" stroke-opacity="0.000" fill="#4C404B" font-size="2.82" font-family="'PT Sans Caption','Helvetica Neue','Helvetica',sans-serif" id="img-b4deb56f-64">
        <text x="120.01" y="67.42" text-anchor="middle" dy="0.35em" visibility="visible">-π/17</text>
      </g>
      <g class="geometry" stroke="#000000" stroke-opacity="0.000" fill="#4C404B" font-size="2.82" font-family="'PT Sans Caption','Helvetica Neue','Helvetica',sans-serif" id="img-b4deb56f-65">
        <text x="119.45" y="52.96" text-anchor="middle" dy="0.35em" visibility="visible">π/17</text>
      </g>
    </g>
  </g>
</g>
  <g class="guide ylabels" font-size="2.82" font-family="'PT Sans Caption','Helvetica Neue','Helvetica',sans-serif" fill="#6C606B" id="img-b4deb56f-66">
    <text x="16.4" y="96.98" text-anchor="end" dy="0.35em">-1</text>
    <text x="16.4" y="57.86" text-anchor="end" dy="0.35em">0</text>
    <text x="16.4" y="18.74" text-anchor="end" dy="0.35em">1</text>
  </g>
  <g font-size="3.88" font-family="'PT Sans','Helvetica Neue','Helvetica',sans-serif" fill="#564A55" stroke="#000000" stroke-opacity="0.000" id="img-b4deb56f-67">
    <text x="8.81" y="55.86" text-anchor="middle" dy="0.35em" transform="rotate(-90, 8.81, 57.86)">Im(αₙ)</text>
  </g>
</g>
<defs>
  <clipPath id="img-b4deb56f-4">
  <path d="M17.4,5 L 125 5 125 110.72 17.4 110.72" />
</clipPath>
  <g id="img-b4deb56f-12">
    <circle cx="0" cy="0" r="0.9"/>
  </g>
</defs>
</svg>
