<?xml version="1.0" encoding="UTF-8"?>
<svg xmlns="http://www.w3.org/2000/svg"
     xmlns:xlink="http://www.w3.org/1999/xlink"
     xmlns:gadfly="http://www.gadflyjl.org/ns"
     version="1.2"
     width="130mm" height="130mm" viewBox="0 0 130 130"
     stroke="none"
     fill="#000000"
     stroke-width="0.3"
     font-size="3.88"
>
<g class="plotroot xscalable yscalable" id="img-194a95c6-1">
  <g font-size="3.88" font-family="'PT Sans','Helvetica Neue','Helvetica',sans-serif" fill="#564A55" stroke="#000000" stroke-opacity="0.000" id="img-194a95c6-2">
    <text x="71.2" y="118.39" text-anchor="middle" dy="0.6em">Re(αₙ)</text>
  </g>
  <g class="guide xlabels" font-size="2.82" font-family="'PT Sans Caption','Helvetica Neue','Helvetica',sans-serif" fill="#6C606B" id="img-194a95c6-3">
    <text x="31.35" y="111.72" text-anchor="middle" dy="0.6em">-1</text>
    <text x="71.2" y="111.72" text-anchor="middle" dy="0.6em">0</text>
    <text x="111.05" y="111.72" text-anchor="middle" dy="0.6em">1</text>
  </g>
<g clip-path="url(#img-194a95c6-4)">
  <g id="img-194a95c6-5">
    <g pointer-events="visible" opacity="1" fill="#000000" fill-opacity="0.000" stroke="#000000" stroke-opacity="0.000" class="guide background" id="img-194a95c6-6">
      <rect x="17.4" y="5" width="107.6" height="105.72"/>
    </g>
    <g class="guide ygridlines xfixed" stroke-dasharray="0.5,0.5" stroke-width="0.2" stroke="#D0D0E0" id="img-194a95c6-7">
      <path fill="none" d="M17.4,96.98 L 125 96.98"/>
      <path fill="none" d="M17.4,57.86 L 125 57.86"/>
      <path fill="none" d="M17.4,18.74 L 125 18.74"/>
    </g>
    <g class="guide xgridlines yfixed" stroke-dasharray="0.5,0.5" stroke-width="0.2" stroke="#D0D0E0" id="img-194a95c6-8">
      <path fill="none" d="M31.35,5 L 31.35 110.72"/>
      <path fill="none" d="M71.2,5 L 71.2 110.72"/>
      <path fill="none" d="M111.05,5 L 111.05 110.72"/>
    </g>
    <g class="plotpanel" id="img-194a95c6-9">
      <g class="geometry" id="img-194a95c6-10">
        <g class="color_RGBA{Float32}(0.0f0,0.74736935f0,1.0f0,1.0f0)" stroke="#FFFFFF" stroke-width="0.3" fill="#00BFFF" id="img-194a95c6-11">
          <use xlink:href="#img-194a95c6-12" x="110.53" y="50.18"/>
          <use xlink:href="#img-194a95c6-12" x="52.31" y="65.54"/>
          <use xlink:href="#img-194a95c6-12" x="82.91" y="50.18"/>
          <use xlink:href="#img-194a95c6-12" x="63.38" y="65.54"/>
          <use xlink:href="#img-194a95c6-12" x="76.43" y="50.18"/>
          <use xlink:href="#img-194a95c6-12" x="67.96" y="65.54"/>
          <use xlink:href="#img-194a95c6-12" x="72.76" y="50.18"/>
          <use xlink:href="#img-194a95c6-12" x="71.2" y="65.54"/>
          <use xlink:href="#img-194a95c6-12" x="69.64" y="50.18"/>
          <use xlink:href="#img-194a95c6-12" x="74.44" y="65.54"/>
          <use xlink:href="#img-194a95c6-12" x="65.97" y="50.18"/>
          <use xlink:href="#img-194a95c6-12" x="79.02" y="65.54"/>
          <use xlink:href="#img-194a95c6-12" x="59.49" y="50.18"/>
          <use xlink:href="#img-194a95c6-12" x="90.09" y="65.54"/>
          <use xlink:href="#img-194a95c6-12" x="31.87" y="50.18"/>
        </g>
      </g>
      <g stroke-width="0.3" fill="#000000" fill-opacity="0.000" class="geometry" stroke-dasharray="none" stroke="#008000" id="img-194a95c6-13">
        <path fill="none" d="M31.87,57.86 L 31.87 50.18"/>
      </g>
      <g stroke-width="0.3" fill="#000000" fill-opacity="0.000" class="geometry" stroke-dasharray="none" stroke="#008000" id="img-194a95c6-14">
        <path fill="none" d="M90.09,57.86 L 90.09 65.54"/>
      </g>
      <g stroke-width="0.3" fill="#000000" fill-opacity="0.000" class="geometry" stroke-dasharray="none" stroke="#008000" id="img-194a95c6-15">
        <path fill="none" d="M59.49,57.86 L 59.49 50.18"/>
      </g>
      <g stroke-width="0.3" fill="#000000" fill-opacity="0.000" class="geometry" stroke-dasharray="none" stroke="#008000" id="img-194a95c6-16">
        <path fill="none" d="M79.02,57.86 L 79.02 65.54"/>
      </g>
      <g stroke-width="0.3" fill="#000000" fill-opacity="0.000" class="geometry" stroke-dasharray="none" stroke="#008000" id="img-194a95c6-17">
        <path fill="none" d="M65.97,57.86 L 65.97 50.18"/>
      </g>
      <g stroke-width="0.3" fill="#000000" fill-opacity="0.000" class="geometry" stroke-dasharray="none" stroke="#008000" id="img-194a95c6-18">
        <path fill="none" d="M74.44,57.86 L 74.44 65.54"/>
      </g>
      <g stroke-width="0.3" fill="#000000" fill-opacity="0.000" class="geometry" stroke-dasharray="none" stroke="#008000" id="img-194a95c6-19">
        <path fill="none" d="M69.64,57.86 L 69.64 50.18"/>
      </g>
      <g stroke-width="0.3" fill="#000000" fill-opacity="0.000" class="geometry" stroke-dasharray="none" stroke="#008000" id="img-194a95c6-20">
        <path fill="none" d="M71.2,57.86 L 71.2 65.54"/>
      </g>
      <g stroke-width="0.3" fill="#000000" fill-opacity="0.000" class="geometry" stroke-dasharray="none" stroke="#008000" id="img-194a95c6-21">
        <path fill="none" d="M72.76,57.86 L 72.76 50.18"/>
      </g>
      <g stroke-width="0.3" fill="#000000" fill-opacity="0.000" class="geometry" stroke-dasharray="none" stroke="#008000" id="img-194a95c6-22">
        <path fill="none" d="M67.96,57.86 L 67.96 65.54"/>
      </g>
      <g stroke-width="0.3" fill="#000000" fill-opacity="0.000" class="geometry" stroke-dasharray="none" stroke="#008000" id="img-194a95c6-23">
        <path fill="none" d="M76.43,57.86 L 76.43 50.18"/>
      </g>
      <g stroke-width="0.3" fill="#000000" fill-opacity="0.000" class="geometry" stroke-dasharray="none" stroke="#008000" id="img-194a95c6-24">
        <path fill="none" d="M63.38,57.86 L 63.38 65.54"/>
      </g>
      <g stroke-width="0.3" fill="#000000" fill-opacity="0.000" class="geometry" stroke-dasharray="none" stroke="#008000" id="img-194a95c6-25">
        <path fill="none" d="M82.91,57.86 L 82.91 50.18"/>
      </g>
      <g stroke-width="0.3" fill="#000000" fill-opacity="0.000" class="geometry" stroke-dasharray="none" stroke="#008000" id="img-194a95c6-26">
        <path fill="none" d="M52.31,57.86 L 52.31 65.54"/>
      </g>
      <g stroke-width="0.3" fill="#000000" fill-opacity="0.000" class="geometry" stroke-dasharray="none" stroke="#008000" id="img-194a95c6-27">
        <path fill="none" d="M110.53,57.86 L 110.53 50.18"/>
      </g>
      <g stroke-width="0.3" fill="#000000" fill-opacity="0.000" class="geometry" stroke-dasharray="none" stroke="#00BFFF" id="img-194a95c6-28">
        <path fill="none" d="M32.12,50.23 L 71.2 57.86"/>
      </g>
      <g stroke-width="0.3" fill="#000000" fill-opacity="0.000" class="geometry" stroke-dasharray="none" stroke="#00BFFF" id="img-194a95c6-29">
        <path fill="none" d="M71.2,57.86 L 108.01 72.83"/>
      </g>
      <g stroke-width="0.3" fill="#000000" fill-opacity="0.000" class="geometry" stroke-dasharray="none" stroke="#00BFFF" id="img-194a95c6-30">
        <path fill="none" d="M38.07,36.12 L 71.2 57.86"/>
      </g>
      <g stroke-width="0.3" fill="#000000" fill-opacity="0.000" class="geometry" stroke-dasharray="none" stroke="#00BFFF" id="img-194a95c6-31">
        <path fill="none" d="M71.2,57.86 L 99.38 85.52"/>
      </g>
      <g stroke-width="0.3" fill="#000000" fill-opacity="0.000" class="geometry" stroke-dasharray="none" stroke="#00BFFF" id="img-194a95c6-32">
        <path fill="none" d="M49.06,25.33 L 71.2 57.86"/>
      </g>
      <g stroke-width="0.3" fill="#000000" fill-opacity="0.000" class="geometry" stroke-dasharray="none" stroke="#00BFFF" id="img-194a95c6-33">
        <path fill="none" d="M71.2,57.86 L 86.45 94"/>
      </g>
      <g stroke-width="0.3" fill="#000000" fill-opacity="0.000" class="geometry" stroke-dasharray="none" stroke="#00BFFF" id="img-194a95c6-34">
        <path fill="none" d="M63.43,19.49 L 71.2 57.86"/>
      </g>
      <g stroke-width="0.3" fill="#000000" fill-opacity="0.000" class="geometry" stroke-dasharray="none" stroke="#00BFFF" id="img-194a95c6-35">
        <path fill="none" d="M71.2,96.98 L 71.2 57.86"/>
      </g>
      <g stroke-width="0.3" fill="#000000" fill-opacity="0.000" class="geometry" stroke-dasharray="none" stroke="#00BFFF" id="img-194a95c6-36">
        <path fill="none" d="M71.2,57.86 L 78.97 19.49"/>
      </g>
      <g stroke-width="0.3" fill="#000000" fill-opacity="0.000" class="geometry" stroke-dasharray="none" stroke="#00BFFF" id="img-194a95c6-37">
        <path fill="none" d="M55.95,94 L 71.2 57.86"/>
      </g>
      <g stroke-width="0.3" fill="#000000" fill-opacity="0.000" class="geometry" stroke-dasharray="none" stroke="#00BFFF" id="img-194a95c6-38">
        <path fill="none" d="M71.2,57.86 L 93.34 25.33"/>
      </g>
      <g stroke-width="0.3" fill="#000000" fill-opacity="0.000" class="geometry" stroke-dasharray="none" stroke="#00BFFF" id="img-194a95c6-39">
        <path fill="none" d="M43.02,85.52 L 71.2 57.86"/>
      </g>
      <g stroke-width="0.3" fill="#000000" fill-opacity="0.000" class="geometry" stroke-dasharray="none" stroke="#00BFFF" id="img-194a95c6-40">
        <path fill="none" d="M71.2,57.86 L 104.33 36.12"/>
      </g>
      <g stroke-width="0.3" fill="#000000" fill-opacity="0.000" class="geometry" stroke-dasharray="none" stroke="#00BFFF" id="img-194a95c6-41">
        <path fill="none" d="M34.39,72.83 L 71.2 57.86"/>
      </g>
      <g stroke-width="0.3" fill="#000000" fill-opacity="0.000" class="geometry" stroke-dasharray="none" stroke="#00BFFF" id="img-194a95c6-42">
        <path fill="none" d="M71.2,57.86 L 110.28 50.23"/>
      </g>
      <g class="geometry" stroke="#000000" stroke-opacity="0.000" fill="#4C404B" font-size="2.82" font-family="'PT Sans Caption','Helvetica Neue','Helvetica',sans-serif" id="img-194a95c6-43">
        <text x="34.79" y="50.92" text-anchor="middle" dy="0.35em" visibility="hidden">15</text>
      </g>
      <g class="geometry" stroke="#000000" stroke-opacity="0.000" fill="#4C404B" font-size="2.82" font-family="'PT Sans Caption','Helvetica Neue','Helvetica',sans-serif" id="img-194a95c6-44">
        <text x="110.69" y="75.17" text-anchor="middle" dy="0.35em" visibility="visible">14</text>
      </g>
      <g class="geometry" stroke="#000000" stroke-opacity="0.000" fill="#4C404B" font-size="2.82" font-family="'PT Sans Caption','Helvetica Neue','Helvetica',sans-serif" id="img-194a95c6-45">
        <text x="40.74" y="38.46" text-anchor="middle" dy="0.35em" visibility="visible">13</text>
      </g>
      <g class="geometry" stroke="#000000" stroke-opacity="0.000" fill="#4C404B" font-size="2.82" font-family="'PT Sans Caption','Helvetica Neue','Helvetica',sans-serif" id="img-194a95c6-46">
        <text x="102.05" y="87.86" text-anchor="middle" dy="0.35em" visibility="visible">12</text>
      </g>
      <g class="geometry" stroke="#000000" stroke-opacity="0.000" fill="#4C404B" font-size="2.82" font-family="'PT Sans Caption','Helvetica Neue','Helvetica',sans-serif" id="img-194a95c6-47">
        <text x="51.73" y="27.67" text-anchor="middle" dy="0.35em" visibility="visible">11</text>
      </g>
      <g class="geometry" stroke="#000000" stroke-opacity="0.000" fill="#4C404B" font-size="2.82" font-family="'PT Sans Caption','Helvetica Neue','Helvetica',sans-serif" id="img-194a95c6-48">
        <text x="89.12" y="96.34" text-anchor="middle" dy="0.35em" visibility="visible">10</text>
      </g>
      <g class="geometry" stroke="#000000" stroke-opacity="0.000" fill="#4C404B" font-size="2.82" font-family="'PT Sans Caption','Helvetica Neue','Helvetica',sans-serif" id="img-194a95c6-49">
        <text x="65.26" y="21.82" text-anchor="middle" dy="0.35em" visibility="visible">9</text>
      </g>
      <g class="geometry" stroke="#000000" stroke-opacity="0.000" fill="#4C404B" font-size="2.82" font-family="'PT Sans Caption','Helvetica Neue','Helvetica',sans-serif" id="img-194a95c6-50">
        <text x="73.04" y="99.32" text-anchor="middle" dy="0.35em" visibility="visible">8</text>
      </g>
      <g class="geometry" stroke="#000000" stroke-opacity="0.000" fill="#4C404B" font-size="2.82" font-family="'PT Sans Caption','Helvetica Neue','Helvetica',sans-serif" id="img-194a95c6-51">
        <text x="80.81" y="21.82" text-anchor="middle" dy="0.35em" visibility="visible">7</text>
      </g>
      <g class="geometry" stroke="#000000" stroke-opacity="0.000" fill="#4C404B" font-size="2.82" font-family="'PT Sans Caption','Helvetica Neue','Helvetica',sans-serif" id="img-194a95c6-52">
        <text x="57.79" y="96.34" text-anchor="middle" dy="0.35em" visibility="visible">6</text>
      </g>
      <g class="geometry" stroke="#000000" stroke-opacity="0.000" fill="#4C404B" font-size="2.82" font-family="'PT Sans Caption','Helvetica Neue','Helvetica',sans-serif" id="img-194a95c6-53">
        <text x="95.17" y="27.67" text-anchor="middle" dy="0.35em" visibility="visible">5</text>
      </g>
      <g class="geometry" stroke="#000000" stroke-opacity="0.000" fill="#4C404B" font-size="2.82" font-family="'PT Sans Caption','Helvetica Neue','Helvetica',sans-serif" id="img-194a95c6-54">
        <text x="44.86" y="87.86" text-anchor="middle" dy="0.35em" visibility="visible">4</text>
      </g>
      <g class="geometry" stroke="#000000" stroke-opacity="0.000" fill="#4C404B" font-size="2.82" font-family="'PT Sans Caption','Helvetica Neue','Helvetica',sans-serif" id="img-194a95c6-55">
        <text x="106.17" y="38.46" text-anchor="middle" dy="0.35em" visibility="visible">3</text>
      </g>
      <g class="geometry" stroke="#000000" stroke-opacity="0.000" fill="#4C404B" font-size="2.82" font-family="'PT Sans Caption','Helvetica Neue','Helvetica',sans-serif" id="img-194a95c6-56">
        <text x="35.73" y="75.17" text-anchor="middle" dy="0.35em" visibility="hidden">2</text>
      </g>
      <g class="geometry" stroke="#000000" stroke-opacity="0.000" fill="#4C404B" font-size="2.82" font-family="'PT Sans Caption','Helvetica Neue','Helvetica',sans-serif" id="img-194a95c6-57">
        <text x="112.12" y="52.56" text-anchor="middle" dy="0.35em" visibility="visible">1</text>
      </g>
      <g stroke-width="0.3" fill="#000000" fill-opacity="0.000" class="geometry" stroke-dasharray="none" stroke="#00BFFF" id="img-194a95c6-58">
        <path fill="none" d="M111.05,57.86 L 111 55.94 110.85 54.02 110.61 52.12 110.28 50.23 109.85 48.35 109.33 46.5 108.72 44.68 108.01 42.89 107.22 41.13 106.34 39.42 105.38 37.75 104.33 36.12 103.2 34.55 102 33.04 100.72 31.59 99.38 30.19 97.96 28.87 96.48 27.62 94.94 26.44 93.34 25.33 91.68 24.3 89.98 23.36 88.24 22.49 86.45 21.71 84.62 21.02 82.77 20.42 80.88 19.91 78.97 19.49 77.05 19.16 75.1 18.92 73.15 18.78 71.2 18.74 69.24 18.78 67.29 18.92 65.35 19.16 63.43 19.49 61.52 19.91 59.63 20.42 57.78 21.02 55.95 21.71 54.16 22.49 52.42 23.36 50.71 24.3 49.06 25.33 47.46 26.44 45.92 27.62 44.44 28.87 43.02 30.19 41.67 31.59 40.4 33.04 39.19 34.55 38.07 36.12 37.02 37.75 36.06 39.42 35.18 41.13 34.39 42.89 33.68 44.68 33.07 46.5 32.55 48.35 32.12 50.23 31.78 52.12 31.54 54.02 31.4 55.94 31.35 57.86 31.4 59.78 31.54 61.69 31.78 63.6 32.12 65.49 32.55 67.36 33.07 69.21 33.68 71.04 34.39 72.83 35.18 74.58 36.06 76.3 37.02 77.97 38.07 79.59 39.19 81.16 40.4 82.68 41.67 84.13 43.02 85.52 44.44 86.84 45.92 88.1 47.46 89.28 49.06 90.39 50.71 91.41 52.42 92.36 54.16 93.22 55.95 94 57.78 94.69 59.63 95.29 61.52 95.81 63.43 96.23 65.35 96.56 67.29 96.79 69.24 96.93 71.2 96.98 73.15 96.93 75.1 96.79 77.05 96.56 78.97 96.23 80.88 95.81 82.77 95.29 84.62 94.69 86.45 94 88.24 93.22 89.98 92.36 91.68 91.41 93.34 90.39 94.94 89.28 96.48 88.1 97.96 86.84 99.38 85.52 100.72 84.13 102 82.68 103.2 81.16 104.33 79.59 105.38 77.97 106.34 76.3 107.22 74.58 108.01 72.83 108.72 71.04 109.33 69.21 109.85 67.36 110.28 65.49 110.61 63.6 110.85 61.69 111 59.78 111.05 57.86"/>
      </g>
      <g class="xfixed" stroke-dasharray="none" stroke-width="0.3" stroke="#808080" id="img-194a95c6-59">
        <path fill="none" d="M17.4,65.54 L 125 65.54"/>
      </g>
      <g class="xfixed" stroke-dasharray="none" stroke-width="0.3" stroke="#808080" id="img-194a95c6-60">
        <path fill="none" d="M17.4,50.18 L 125 50.18"/>
      </g>
      <g class="geometry" stroke="#000000" stroke-opacity="0.000" fill="#4C404B" font-size="2.82" font-family="'PT Sans Caption','Helvetica Neue','Helvetica',sans-serif" id="img-194a95c6-61">
        <text x="120.01" y="67.88" text-anchor="middle" dy="0.35em" visibility="visible">-π/16</text>
      </g>
      <g class="geometry" stroke="#000000" stroke-opacity="0.000" fill="#4C404B" font-size="2.82" font-family="'PT Sans Caption','Helvetica Neue','Helvetica',sans-serif" id="img-194a95c6-62">
        <text x="119.45" y="52.51" text-anchor="middle" dy="0.35em" visibility="visible">π/16</text>
      </g>
    </g>
  </g>
</g>
  <g class="guide ylabels" font-size="2.82" font-family="'PT Sans Caption','Helvetica Neue','Helvetica',sans-serif" fill="#6C606B" id="img-194a95c6-63">
    <text x="16.4" y="96.98" text-anchor="end" dy="0.35em">-1</text>
    <text x="16.4" y="57.86" text-anchor="end" dy="0.35em">0</text>
    <text x="16.4" y="18.74" text-anchor="end" dy="0.35em">1</text>
  </g>
  <g font-size="3.88" font-family="'PT Sans','Helvetica Neue','Helvetica',sans-serif" fill="#564A55" stroke="#000000" stroke-opacity="0.000" id="img-194a95c6-64">
    <text x="8.81" y="55.86" text-anchor="middle" dy="0.35em" transform="rotate(-90, 8.81, 57.86)">Im(αₙ)</text>
  </g>
</g>
<defs>
  <clipPath id="img-194a95c6-4">
  <path d="M17.4,5 L 125 5 125 110.72 17.4 110.72" />
</clipPath>
  <g id="img-194a95c6-12">
    <circle cx="0" cy="0" r="0.9"/>
  </g>
</defs>
</svg>
