<?xml version="1.0" encoding="UTF-8"?>
<svg xmlns="http://www.w3.org/2000/svg"
     xmlns:xlink="http://www.w3.org/1999/xlink"
     xmlns:gadfly="http://www.gadflyjl.org/ns"
     version="1.2"
     width="110mm" height="110mm" viewBox="0 0 110 110"
     stroke="none"
     fill="#000000"
     stroke-width="0.3"
     font-size="3.88"
>
<g class="plotroot xscalable yscalable" id="img-e066d7ac-1">
  <g font-size="3.88" font-family="'PT Sans','Helvetica Neue','Helvetica',sans-serif" fill="#564A55" stroke="#000000" stroke-opacity="0.000" id="img-e066d7ac-2">
    <text x="61.2" y="98.39" text-anchor="middle" dy="0.6em">Re(αₙ)</text>
  </g>
  <g class="guide xlabels" font-size="2.82" font-family="'PT Sans Caption','Helvetica Neue','Helvetica',sans-serif" fill="#6C606B" id="img-e066d7ac-3">
    <text x="29.04" y="91.72" text-anchor="middle" dy="0.6em">-1</text>
    <text x="61.2" y="91.72" text-anchor="middle" dy="0.6em">0</text>
    <text x="93.35" y="91.72" text-anchor="middle" dy="0.6em">1</text>
  </g>
<g clip-path="url(#img-e066d7ac-4)">
  <g id="img-e066d7ac-5">
    <g pointer-events="visible" opacity="1" fill="#000000" fill-opacity="0.000" stroke="#000000" stroke-opacity="0.000" class="guide background" id="img-e066d7ac-6">
      <rect x="17.4" y="5" width="87.6" height="85.72"/>
    </g>
    <g class="guide ygridlines xfixed" stroke-dasharray="0.5,0.5" stroke-width="0.2" stroke="#D0D0E0" id="img-e066d7ac-7">
      <path fill="none" d="M17.4,79.29 L 105 79.29"/>
      <path fill="none" d="M17.4,47.86 L 105 47.86"/>
      <path fill="none" d="M17.4,16.43 L 105 16.43"/>
    </g>
    <g class="guide xgridlines yfixed" stroke-dasharray="0.5,0.5" stroke-width="0.2" stroke="#D0D0E0" id="img-e066d7ac-8">
      <path fill="none" d="M29.04,5 L 29.04 90.72"/>
      <path fill="none" d="M61.2,5 L 61.2 90.72"/>
      <path fill="none" d="M93.35,5 L 93.35 90.72"/>
    </g>
    <g class="plotpanel" id="img-e066d7ac-9">
      <g class="geometry" id="img-e066d7ac-10">
        <g class="color_RGBA{Float32}(0.0f0,0.74736935f0,1.0f0,1.0f0)" stroke="#FFFFFF" stroke-width="0.3" fill="#00BFFF" id="img-e066d7ac-11">
          <use xlink:href="#img-e066d7ac-12" x="93.54" y="47.86"/>
          <use xlink:href="#img-e066d7ac-12" x="44.75" y="47.86"/>
          <use xlink:href="#img-e066d7ac-12" x="72.49" y="47.86"/>
          <use xlink:href="#img-e066d7ac-12" x="52.38" y="47.86"/>
          <use xlink:href="#img-e066d7ac-12" x="68.65" y="47.86"/>
          <use xlink:href="#img-e066d7ac-12" x="54.56" y="47.86"/>
          <use xlink:href="#img-e066d7ac-12" x="67.38" y="47.86"/>
          <use xlink:href="#img-e066d7ac-12" x="55.23" y="47.86"/>
          <use xlink:href="#img-e066d7ac-12" x="67.17" y="47.86"/>
          <use xlink:href="#img-e066d7ac-12" x="55.02" y="47.86"/>
          <use xlink:href="#img-e066d7ac-12" x="67.84" y="47.86"/>
          <use xlink:href="#img-e066d7ac-12" x="53.75" y="47.86"/>
          <use xlink:href="#img-e066d7ac-12" x="70.02" y="47.86"/>
          <use xlink:href="#img-e066d7ac-12" x="49.91" y="47.86"/>
          <use xlink:href="#img-e066d7ac-12" x="77.65" y="47.86"/>
          <use xlink:href="#img-e066d7ac-12" x="28.86" y="47.86"/>
        </g>
      </g>
      <g stroke-width="0.3" fill="#000000" fill-opacity="0.000" class="geometry" stroke-dasharray="none" stroke="#008000" id="img-e066d7ac-13">
        <path fill="none" d="M28.86,47.86 L 28.87 48.59 28.9 49.32 28.94 50.05 29 50.77 29.08 51.5 29.17 52.22 29.28 52.95 29.41 53.67 29.56 54.38 29.72 55.09 29.9 55.8 30.1 56.51 30.31 57.21 30.54 57.9 30.78 58.59 31.04 59.28 31.32 59.95 31.62 60.62 31.93 61.29 32.25 61.95 32.59 62.6 32.95 63.24 33.32 63.87 33.7 64.5 34.11 65.11 34.52 65.72 34.95 66.32 35.39 66.91 35.85 67.48 36.32 68.05 36.8 68.61 37.3 69.15 37.81 69.69 38.33 70.21 38.87 70.72 39.41 71.22 39.97 71.7 40.54 72.17 41.12 72.63 41.71 73.08 42.31 73.51 42.92 73.93 43.54 74.34 44.18 74.73 44.81 75.11 45.46 75.47 46.12 75.82 46.78 76.15 47.46 76.47 48.14 76.77 48.82 77.06 49.52 77.33 50.22 77.59 50.92 77.83 51.63 78.05 52.35 78.26 53.07 78.45 53.8 78.63 54.52 78.79 55.26 78.93 55.99 79.05 56.73 79.16 57.47 79.26 58.22 79.33 58.96 79.39 59.71 79.43 60.45 79.46 61.2 79.47 61.95 79.46 62.69 79.43 63.44 79.39 64.18 79.33 64.93 79.26 65.67 79.16 66.41 79.05 67.14 78.93 67.87 78.79 68.6 78.63 69.33 78.45 70.05 78.26 70.77 78.05 71.48 77.83 72.18 77.59 72.88 77.33 73.57 77.06 74.26 76.77 74.94 76.47 75.61 76.15 76.28 75.82 76.94 75.47 77.58 75.11 78.22 74.73 78.85 74.34 79.47 73.93 80.09 73.51 80.69 73.08 81.28 72.63 81.86 72.17 82.43 71.7 82.99 71.22 83.53 70.72 84.07 70.21 84.59 69.69 85.1 69.15 85.59 68.61 86.08 68.05 86.55 67.48 87.01 66.91 87.45 66.32 87.88 65.72 88.29 65.11 88.69 64.5 89.08 63.87 89.45 63.24 89.81 62.6 90.15 61.95 90.47 61.29 90.78 60.62 91.08 59.95 91.35 59.28 91.62 58.59 91.86 57.9 92.09 57.21 92.3 56.51 92.5 55.8 92.68 55.09 92.84 54.38 92.99 53.67"/>
      </g>
      <g stroke-width="0.3" fill="#000000" fill-opacity="0.000" class="geometry" stroke-dasharray="none" stroke="#008000" id="img-e066d7ac-14">
        <path fill="none" d="M77.65,47.86 L 77.64 47.51 77.63 47.16 77.61 46.81 77.59 46.47 77.55 46.12 77.51 45.77 77.46 45.43 77.4 45.09 77.34 44.74 77.26 44.4 77.18 44.06 77.1 43.73 77 43.39 76.9 43.06 76.79 42.73 76.67 42.4 76.55 42.07 76.41 41.75 76.28 41.43 76.13 41.11 75.98 40.8 75.82 40.48 75.65 40.18 75.48 39.87 75.3 39.57 75.11 39.28 74.92 38.98 74.72 38.69 74.51 38.41 74.3 38.13 74.08 37.86 73.85 37.59 73.62 37.32 73.39 37.06 73.15 36.8 72.9 36.55 72.64 36.31 72.39 36.07 72.12 35.84 71.85 35.61 71.58 35.38 71.3 35.17 71.02 34.96 70.73 34.75 70.44 34.55 70.14 34.36 69.84 34.18 69.53 34 69.22 33.82 68.91 33.66 68.59 33.5 68.28 33.34 67.95 33.2 67.63 33.06 67.3 32.92 66.96 32.8 66.63 32.68 66.29 32.57 65.95 32.47 65.61 32.37 65.27 32.28 64.92 32.2 64.57 32.12 64.22 32.05 63.87 31.99 63.52 31.94 63.17 31.89 62.81 31.86 62.46 31.83 62.1 31.8 61.75 31.79 61.39 31.78 61.03 31.78 60.68 31.79 60.32 31.8 59.97 31.82 59.61 31.85 59.26 31.89 58.9 31.94 58.55 31.99 58.2 32.05 57.85 32.12 57.5 32.19 57.16 32.27 56.81 32.36 56.47 32.46 56.13 32.56 55.79 32.67 55.46 32.79 55.12 32.92 54.79 33.05 54.47 33.19 54.14 33.33 53.82 33.49 53.51 33.65 53.19 33.81 52.89 33.98 52.58 34.16 52.28 34.35 51.98 34.54 51.69 34.74 51.4 34.94 51.12 35.15 50.84 35.37 50.56 35.59 50.29 35.82 50.03 36.05 49.77 36.29 49.52 36.54 49.27 36.79 49.03 37.04 48.79 37.3 48.56 37.57 48.33 37.84 48.12 38.11 47.9 38.39 47.7 38.68 47.5 38.96 47.3 39.26 47.11 39.55 46.93 39.85 46.76 40.16 46.59 40.46 46.43 40.77 46.28 41.09 46.13 41.41 45.99 41.73 45.86 42.05"/>
      </g>
      <g stroke-width="0.3" fill="#000000" fill-opacity="0.000" class="geometry" stroke-dasharray="none" stroke="#008000" id="img-e066d7ac-15">
        <path fill="none" d="M49.91,47.86 L 49.91 48.08 49.92 48.3 49.93 48.53 49.95 48.75 49.97 48.97 49.99 49.19 50.02 49.41 50.06 49.63 50.1 49.85 50.14 50.07 50.19 50.29 50.24 50.51 50.3 50.72 50.36 50.94 50.43 51.15 50.5 51.36 50.57 51.57 50.65 51.78 50.73 51.99 50.82 52.2 50.91 52.4 51.01 52.6 51.11 52.8 51.21 53 51.32 53.2 51.43 53.39 51.55 53.58 51.67 53.77 51.8 53.96 51.92 54.15 52.06 54.33 52.19 54.51 52.33 54.68 52.47 54.86 52.62 55.03 52.77 55.2 52.92 55.36 53.08 55.52 53.24 55.68 53.4 55.84 53.57 55.99 53.74 56.14 53.91 56.28 54.09 56.43 54.27 56.56 54.45 56.7 54.63 56.83 54.82 56.96 55.01 57.08 55.2 57.2 55.4 57.32 55.59 57.43 55.79 57.54 55.99 57.65 56.2 57.75 56.4 57.84 56.61 57.94 56.82 58.03 57.03 58.11 57.24 58.19 57.46 58.27 57.67 58.34 57.89 58.41 58.11 58.47 58.33 58.53 58.55 58.58 58.77 58.63 59 58.68 59.22 58.72 59.45 58.76 59.67 58.79 59.9 58.82 60.13 58.84 60.35 58.86 60.58 58.87 60.81 58.88 61.04 58.89 61.26 58.89 61.49 58.89 61.72 58.88 61.95 58.87 62.18 58.85 62.4 58.83 62.63 58.8 62.86 58.77 63.08 58.74 63.31 58.7 63.53 58.65 63.75 58.6 63.97 58.55 64.19 58.49 64.41 58.43 64.63 58.37 64.85 58.3 65.06 58.22 65.28 58.15 65.49 58.06 65.7 57.98 65.91 57.88 66.11 57.79 66.32 57.69 66.52 57.59 66.72 57.48 66.92 57.37 67.11 57.25 67.31 57.14 67.5 57.01 67.69 56.89 67.87 56.76 68.05 56.62 68.23 56.49 68.41 56.35 68.58 56.2 68.76 56.05 68.92 55.9 69.09 55.75 69.25 55.59 69.41 55.43 69.56 55.27 69.71 55.1 69.86 54.93 70.01 54.76 70.15 54.58 70.28 54.4 70.42 54.22 70.55 54.04 70.67 53.85 70.8 53.67"/>
      </g>
      <g stroke-width="0.3" fill="#000000" fill-opacity="0.000" class="geometry" stroke-dasharray="none" stroke="#008000" id="img-e066d7ac-16">
        <path fill="none" d="M70.02,47.86 L 70.02 47.7 70.01 47.53 70.01 47.37 69.99 47.21 69.98 47.05 69.96 46.89 69.94 46.73 69.92 46.57 69.89 46.41 69.86 46.25 69.83 46.09 69.8 45.93 69.76 45.77 69.72 45.62 69.67 45.46 69.62 45.31 69.57 45.15 69.52 45 69.46 44.85 69.41 44.7 69.34 44.55 69.28 44.4 69.21 44.25 69.14 44.1 69.07 43.96 68.99 43.82 68.91 43.67 68.83 43.53 68.74 43.39 68.66 43.26 68.57 43.12 68.48 42.99 68.38 42.85 68.28 42.72 68.18 42.59 68.08 42.47 67.98 42.34 67.87 42.22 67.76 42.1 67.65 41.98 67.53 41.86 67.42 41.74 67.3 41.63 67.18 41.52 67.06 41.41 66.93 41.31 66.8 41.2 66.68 41.1 66.54 41 66.41 40.9 66.28 40.81 66.14 40.72 66 40.63 65.86 40.54 65.72 40.46 65.58 40.37 65.44 40.3 65.29 40.22 65.14 40.15 64.99 40.07 64.84 40.01 64.69 39.94 64.54 39.88 64.39 39.82 64.23 39.76 64.07 39.71 63.92 39.66 63.76 39.61 63.6 39.56 63.44 39.52 63.28 39.48 63.12 39.44 62.96 39.41 62.79 39.38 62.63 39.35 62.47 39.33 62.3 39.3 62.14 39.29 61.97 39.27 61.81 39.26 61.64 39.25 61.48 39.24 61.31 39.24 61.15 39.24 60.98 39.24 60.82 39.24 60.65 39.25 60.49 39.26 60.32 39.28 60.16 39.3 59.99 39.32 59.83 39.34 59.67 39.37 59.5 39.4 59.34 39.43 59.18 39.47 59.02 39.5 58.86 39.55 58.7 39.59 58.54 39.64 58.38 39.69 58.23 39.74 58.07 39.8 57.92 39.86 57.77 39.92 57.61 39.98 57.46 40.05 57.31 40.12 57.17 40.19 57.02 40.27 56.87 40.34 56.73 40.42 56.59 40.51 56.45 40.59 56.31 40.68 56.17 40.77 56.04 40.87 55.9 40.96 55.77 41.06 55.64 41.16 55.52 41.26 55.39 41.37 55.27 41.48 55.15 41.59 55.03 41.7 54.91 41.81 54.79 41.93 54.68 42.05"/>
      </g>
      <g stroke-width="0.3" fill="#000000" fill-opacity="0.000" class="geometry" stroke-dasharray="none" stroke="#008000" id="img-e066d7ac-17">
        <path fill="none" d="M53.75,47.86 L 53.75 47.98 53.76 48.11 53.76 48.24 53.77 48.36 53.78 48.49 53.79 48.61 53.81 48.74 53.82 48.86 53.84 48.99 53.86 49.11 53.89 49.24 53.91 49.36 53.94 49.48 53.97 49.61 54 49.73 54.04 49.85 54.07 49.97 54.11 50.09 54.15 50.21 54.2 50.33 54.24 50.45 54.29 50.56 54.34 50.68 54.39 50.8 54.44 50.91 54.5 51.03 54.55 51.14 54.61 51.25 54.67 51.36 54.74 51.47 54.8 51.58 54.87 51.69 54.94 51.8 55.01 51.9 55.08 52.01 55.15 52.11 55.23 52.21 55.31 52.31 55.39 52.41 55.47 52.51 55.55 52.6 55.64 52.7 55.73 52.79 55.81 52.88 55.9 52.97 56 53.06 56.09 53.15 56.18 53.24 56.28 53.32 56.38 53.4 56.48 53.48 56.58 53.56 56.68 53.64 56.78 53.72 56.89 53.79 56.99 53.86 57.1 53.93 57.21 54 57.32 54.07 57.43 54.13 57.54 54.2 57.65 54.26 57.77 54.32 57.88 54.37 58 54.43 58.11 54.48 58.23 54.53 58.35 54.58 58.47 54.63 58.59 54.67 58.71 54.72 58.83 54.76 58.96 54.8 59.08 54.83 59.2 54.87 59.33 54.9 59.45 54.93 59.58 54.96 59.7 54.99 59.83 55.01 59.96 55.03 60.09 55.05 60.21 55.07 60.34 55.09 60.47 55.1 60.6 55.11 60.73 55.12 60.86 55.13 60.98 55.13 61.11 55.14 61.24 55.14 61.37 55.13 61.5 55.13 61.63 55.12 61.76 55.12 61.89 55.1 62.01 55.09 62.14 55.08 62.27 55.06 62.4 55.04 62.53 55.02 62.65 55 62.78 54.97 62.9 54.94 63.03 54.91 63.15 54.88 63.28 54.85 63.4 54.81 63.52 54.77 63.65 54.73 63.77 54.69 63.89 54.64 64.01 54.6 64.13 54.55 64.25 54.5 64.36 54.45 64.48 54.39 64.59 54.33 64.71 54.28 64.82 54.22 64.93 54.15 65.05 54.09 65.16 54.02 65.26 53.96 65.37 53.89 65.48 53.81 65.58 53.74 65.69 53.67"/>
      </g>
      <g stroke-width="0.3" fill="#000000" fill-opacity="0.000" class="geometry" stroke-dasharray="none" stroke="#008000" id="img-e066d7ac-18">
        <path fill="none" d="M67.84,47.86 L 67.84 47.75 67.83 47.65 67.83 47.55 67.82 47.45 67.82 47.34 67.81 47.24 67.8 47.14 67.78 47.04 67.77 46.93 67.75 46.83 67.74 46.73 67.72 46.63 67.7 46.53 67.67 46.43 67.65 46.33 67.62 46.23 67.6 46.13 67.57 46.03 67.54 45.93 67.51 45.83 67.47 45.73 67.44 45.64 67.4 45.54 67.36 45.44 67.32 45.35 67.28 45.25 67.24 45.16 67.19 45.07 67.15 44.97 67.1 44.88 67.05 44.79 67 44.7 66.95 44.61 66.89 44.52 66.84 44.43 66.78 44.35 66.72 44.26 66.66 44.18 66.6 44.09 66.54 44.01 66.48 43.93 66.41 43.84 66.35 43.76 66.28 43.68 66.21 43.61 66.14 43.53 66.07 43.45 66 43.38 65.93 43.3 65.85 43.23 65.78 43.16 65.7 43.09 65.62 43.02 65.54 42.95 65.46 42.88 65.38 42.82 65.3 42.75 65.21 42.69 65.13 42.63 65.04 42.57 64.96 42.51 64.87 42.45 64.78 42.4 64.69 42.34 64.6 42.29 64.51 42.24 64.42 42.18 64.33 42.14 64.23 42.09 64.14 42.04 64.05 42 63.95 41.95 63.85 41.91 63.76 41.87 63.66 41.83 63.56 41.79 63.46 41.76 63.36 41.72 63.26 41.69 63.16 41.66 63.06 41.63 62.96 41.6 62.86 41.58 62.76 41.55 62.65 41.53 62.55 41.51 62.45 41.48 62.34 41.47 62.24 41.45 62.14 41.43 62.03 41.42 61.93 41.41 61.82 41.4 61.72 41.39 61.61 41.38 61.51 41.38 61.4 41.37 61.29 41.37 61.19 41.37 61.08 41.37 60.98 41.37 60.87 41.38 60.77 41.38 60.66 41.39 60.56 41.4 60.45 41.41 60.35 41.42 60.24 41.44 60.14 41.45 60.04 41.47 59.93 41.49 59.83 41.51 59.73 41.53 59.62 41.55 59.52 41.58 59.42 41.61 59.32 41.64 59.22 41.67 59.12 41.7 59.02 41.73 58.92 41.76 58.82 41.8 58.72 41.84 58.62 41.88 58.53 41.92 58.43 41.96 58.34 42 58.24 42.05"/>
      </g>
      <g stroke-width="0.3" fill="#000000" fill-opacity="0.000" class="geometry" stroke-dasharray="none" stroke="#008000" id="img-e066d7ac-19">
        <path fill="none" d="M55.02,47.86 L 55.02 47.94 55.02 48.03 55.03 48.12 55.03 48.21 55.04 48.29 55.04 48.38 55.05 48.47 55.06 48.55 55.07 48.64 55.09 48.73 55.1 48.81 55.11 48.9 55.13 48.98 55.15 49.07 55.17 49.16 55.19 49.24 55.21 49.32 55.23 49.41 55.25 49.49 55.28 49.58 55.3 49.66 55.33 49.74 55.36 49.83 55.39 49.91 55.42 49.99 55.45 50.07 55.48 50.15 55.52 50.23 55.55 50.31 55.59 50.39 55.63 50.47 55.67 50.55 55.71 50.63 55.75 50.7 55.79 50.78 55.84 50.86 55.88 50.93 55.93 51.01 55.97 51.08 56.02 51.15 56.07 51.23 56.12 51.3 56.17 51.37 56.23 51.44 56.28 51.51 56.33 51.58 56.39 51.65 56.45 51.72 56.5 51.78 56.56 51.85 56.62 51.91 56.68 51.98 56.74 52.04 56.81 52.1 56.87 52.16 56.93 52.22 57 52.28 57.06 52.34 57.13 52.4 57.2 52.46 57.27 52.51 57.34 52.57 57.41 52.62 57.48 52.68 57.55 52.73 57.62 52.78 57.69 52.83 57.77 52.88 57.84 52.93 57.92 52.97 57.99 53.02 58.07 53.06 58.15 53.11 58.22 53.15 58.3 53.19 58.38 53.23 58.46 53.27 58.54 53.31 58.62 53.35 58.7 53.38 58.79 53.42 58.87 53.45 58.95 53.48 59.03 53.51 59.12 53.54 59.2 53.57 59.29 53.6 59.37 53.63 59.46 53.65 59.54 53.67 59.63 53.7 59.72 53.72 59.8 53.74 59.89 53.76 59.98 53.78 60.06 53.79 60.15 53.81 60.24 53.82 60.33 53.84 60.42 53.85 60.5 53.86 60.59 53.87 60.68 53.87 60.77 53.88 60.86 53.89 60.95 53.89 61.04 53.89 61.13 53.9 61.22 53.9 61.31 53.9 61.4 53.89 61.48 53.89 61.57 53.88 61.66 53.88 61.75 53.87 61.84 53.86 61.93 53.85 62.02 53.84 62.11 53.83 62.19 53.82 62.28 53.8 62.37 53.79 62.46 53.77 62.54 53.75 62.63 53.73 62.72 53.71 62.8 53.69 62.89 53.67"/>
      </g>
      <g stroke-width="0.3" fill="#000000" fill-opacity="0.000" class="geometry" stroke-dasharray="none" stroke="#008000" id="img-e066d7ac-20">
        <path fill="none" d="M67.17,47.86 L 67.17 47.78 67.16 47.71 67.16 47.63 67.16 47.55 67.15 47.48 67.15 47.4 67.14 47.33 67.13 47.25 67.13 47.18 67.12 47.1 67.11 47.03 67.09 46.95 67.08 46.88 67.07 46.8 67.05 46.73 67.04 46.65 67.02 46.58 67 46.51 66.99 46.43 66.97 46.36 66.95 46.29 66.92 46.21 66.9 46.14 66.88 46.07 66.85 46 66.83 45.92 66.8 45.85 66.78 45.78 66.75 45.71 66.72 45.64 66.69 45.57 66.66 45.5 66.63 45.43 66.59 45.36 66.56 45.3 66.53 45.23 66.49 45.16 66.45 45.09 66.42 45.03 66.38 44.96 66.34 44.89 66.3 44.83 66.26 44.77 66.22 44.7 66.18 44.64 66.13 44.58 66.09 44.51 66.04 44.45 66 44.39 65.95 44.33 65.9 44.27 65.86 44.21 65.81 44.15 65.76 44.09 65.71 44.03 65.66 43.98 65.6 43.92 65.55 43.87 65.5 43.81 65.44 43.76 65.39 43.7 65.33 43.65 65.28 43.6 65.22 43.55 65.16 43.5 65.1 43.45 65.04 43.4 64.98 43.35 64.92 43.3 64.86 43.25 64.8 43.21 64.74 43.16 64.68 43.12 64.61 43.07 64.55 43.03 64.49 42.99 64.42 42.95 64.36 42.91 64.29 42.87 64.22 42.83 64.16 42.79 64.09 42.75 64.02 42.72 63.95 42.68 63.88 42.65 63.81 42.61 63.74 42.58 63.67 42.55 63.6 42.52 63.53 42.49 63.46 42.46 63.39 42.43 63.31 42.4 63.24 42.38 63.17 42.35 63.1 42.33 63.02 42.3 62.95 42.28 62.87 42.26 62.8 42.24 62.72 42.22 62.65 42.2 62.57 42.18 62.5 42.16 62.42 42.15 62.35 42.13 62.27 42.12 62.19 42.11 62.12 42.09 62.04 42.08 61.96 42.07 61.89 42.06 61.81 42.06 61.73 42.05 61.66 42.04 61.58 42.04 61.5 42.03 61.42 42.03 61.35 42.03 61.27 42.02 61.19 42.02 61.11 42.03 61.04 42.03 60.96 42.03 60.88 42.03 60.8 42.04 60.73 42.04 60.65 42.05"/>
      </g>
      <g stroke-width="0.3" fill="#000000" fill-opacity="0.000" class="geometry" stroke-dasharray="none" stroke="#008000" id="img-e066d7ac-21">
        <path fill="none" d="M55.23,47.86 L 55.23 47.92 55.23 47.99 55.24 48.06 55.24 48.13 55.24 48.19 55.25 48.26 55.25 48.33 55.26 48.4 55.26 48.46 55.27 48.53 55.28 48.6 55.29 48.66 55.3 48.73 55.31 48.8 55.32 48.86 55.33 48.93 55.35 49 55.36 49.06 55.37 49.13 55.39 49.19 55.41 49.26 55.42 49.32 55.44 49.39 55.46 49.45 55.48 49.52 55.5 49.58 55.52 49.65 55.54 49.71 55.56 49.77 55.59 49.84 55.61 49.9 55.63 49.96 55.66 50.03 55.69 50.09 55.71 50.15 55.74 50.21 55.77 50.28 55.8 50.34 55.83 50.4 55.86 50.46 55.89 50.52 55.92 50.58 55.95 50.64 55.99 50.7 56.02 50.75 56.05 50.81 56.09 50.87 56.13 50.93 56.16 50.99 56.2 51.04 56.24 51.1 56.28 51.15 56.32 51.21 56.36 51.26 56.4 51.32 56.44 51.37 56.48 51.43 56.52 51.48 56.56 51.53 56.61 51.58 56.65 51.64 56.7 51.69 56.74 51.74 56.79 51.79 56.84 51.84 56.88 51.89 56.93 51.93 56.98 51.98 57.03 52.03 57.08 52.08 57.13 52.12 57.18 52.17 57.23 52.21 57.28 52.26 57.33 52.3 57.39 52.34 57.44 52.39 57.49 52.43 57.55 52.47 57.6 52.51 57.66 52.55 57.71 52.59 57.77 52.63 57.83 52.67 57.88 52.71 57.94 52.74 58 52.78 58.06 52.82 58.12 52.85 58.18 52.89 58.24 52.92 58.3 52.95 58.36 52.99 58.42 53.02 58.48 53.05 58.54 53.08 58.6 53.11 58.66 53.14 58.73 53.17 58.79 53.19 58.85 53.22 58.92 53.25 58.98 53.27 59.04 53.3 59.11 53.32 59.17 53.34 59.24 53.37 59.3 53.39 59.37 53.41 59.43 53.43 59.5 53.45 59.57 53.47 59.63 53.49 59.7 53.5 59.77 53.52 59.83 53.54 59.9 53.55 59.97 53.56 60.03 53.58 60.1 53.59 60.17 53.6 60.24 53.61 60.31 53.62 60.37 53.63 60.44 53.64 60.51 53.65 60.58 53.66 60.65 53.67"/>
      </g>
      <g stroke-width="0.3" fill="#000000" fill-opacity="0.000" class="geometry" stroke-dasharray="none" stroke="#008000" id="img-e066d7ac-22">
        <path fill="none" d="M67.38,47.86 L 67.38 47.8 67.38 47.74 67.37 47.67 67.37 47.61 67.37 47.55 67.37 47.49 67.36 47.43 67.36 47.37 67.35 47.31 67.35 47.25 67.34 47.19 67.33 47.13 67.32 47.07 67.32 47.01 67.31 46.95 67.3 46.89 67.29 46.83 67.28 46.77 67.26 46.71 67.25 46.65 67.24 46.59 67.23 46.53 67.21 46.47 67.2 46.41 67.18 46.35 67.17 46.29 67.15 46.23 67.13 46.17 67.11 46.11 67.1 46.05 67.08 46 67.06 45.94 67.04 45.88 67.02 45.82 66.99 45.77 66.97 45.71 66.95 45.65 66.93 45.6 66.9 45.54 66.88 45.48 66.85 45.43 66.83 45.37 66.8 45.32 66.78 45.26 66.75 45.2 66.72 45.15 66.69 45.1 66.66 45.04 66.63 44.99 66.61 44.93 66.57 44.88 66.54 44.83 66.51 44.78 66.48 44.72 66.45 44.67 66.41 44.62 66.38 44.57 66.35 44.52 66.31 44.47 66.28 44.42 66.24 44.37 66.2 44.32 66.17 44.27 66.13 44.22 66.09 44.17 66.05 44.12 66.01 44.07 65.97 44.03 65.93 43.98 65.89 43.93 65.85 43.89 65.81 43.84 65.77 43.8 65.73 43.75 65.69 43.71 65.64 43.66 65.6 43.62 65.56 43.58 65.51 43.53 65.47 43.49 65.42 43.45 65.37 43.41 65.33 43.37 65.28 43.33 65.23 43.29 65.19 43.25 65.14 43.21 65.09 43.17 65.04 43.13 64.99 43.09 64.94 43.05 64.89 43.02 64.84 42.98 64.79 42.95 64.74 42.91 64.69 42.88 64.64 42.84 64.59 42.81 64.53 42.77 64.48 42.74 64.43 42.71 64.38 42.68 64.32 42.65 64.27 42.62 64.21 42.59 64.16 42.56 64.1 42.53 64.05 42.5 63.99 42.47 63.94 42.44 63.88 42.42 63.82 42.39 63.77 42.37 63.71 42.34 63.65 42.32 63.6 42.29 63.54 42.27 63.48 42.25 63.42 42.22 63.36 42.2 63.31 42.18 63.25 42.16 63.19 42.14 63.13 42.12 63.07 42.1 63.01 42.08 62.95 42.07 62.89 42.05"/>
      </g>
      <g stroke-width="0.3" fill="#000000" fill-opacity="0.000" class="geometry" stroke-dasharray="none" stroke="#008000" id="img-e066d7ac-23">
        <path fill="none" d="M54.56,47.86 L 54.56 47.91 54.56 47.97 54.56 48.03 54.57 48.08 54.57 48.14 54.57 48.19 54.57 48.25 54.58 48.31 54.58 48.36 54.59 48.42 54.59 48.47 54.6 48.53 54.6 48.59 54.61 48.64 54.62 48.7 54.62 48.75 54.63 48.81 54.64 48.87 54.65 48.92 54.66 48.98 54.67 49.03 54.68 49.09 54.69 49.14 54.7 49.2 54.72 49.25 54.73 49.31 54.74 49.36 54.76 49.42 54.77 49.47 54.78 49.52 54.8 49.58 54.81 49.63 54.83 49.69 54.85 49.74 54.86 49.79 54.88 49.85 54.9 49.9 54.92 49.95 54.94 50.01 54.96 50.06 54.98 50.11 55 50.17 55.02 50.22 55.04 50.27 55.06 50.32 55.08 50.38 55.1 50.43 55.13 50.48 55.15 50.53 55.17 50.58 55.2 50.63 55.22 50.68 55.25 50.73 55.27 50.78 55.3 50.83 55.33 50.88 55.35 50.93 55.38 50.98 55.41 51.03 55.44 51.08 55.47 51.13 55.5 51.18 55.53 51.23 55.56 51.27 55.59 51.32 55.62 51.37 55.65 51.42 55.68 51.46 55.71 51.51 55.74 51.56 55.78 51.6 55.81 51.65 55.84 51.69 55.88 51.74 55.91 51.78 55.95 51.83 55.98 51.87 56.02 51.92 56.06 51.96 56.09 52 56.13 52.05 56.17 52.09 56.2 52.13 56.24 52.17 56.28 52.21 56.32 52.26 56.36 52.3 56.4 52.34 56.44 52.38 56.48 52.42 56.52 52.46 56.56 52.5 56.6 52.54 56.64 52.58 56.68 52.61 56.73 52.65 56.77 52.69 56.81 52.73 56.86 52.76 56.9 52.8 56.94 52.84 56.99 52.87 57.03 52.91 57.08 52.94 57.12 52.98 57.17 53.01 57.21 53.05 57.26 53.08 57.31 53.11 57.35 53.15 57.4 53.18 57.45 53.21 57.5 53.24 57.54 53.27 57.59 53.3 57.64 53.33 57.69 53.36 57.74 53.39 57.79 53.42 57.84 53.45 57.89 53.48 57.94 53.51 57.99 53.53 58.04 53.56 58.09 53.59 58.14 53.61 58.19 53.64 58.24 53.67"/>
      </g>
      <g stroke-width="0.3" fill="#000000" fill-opacity="0.000" class="geometry" stroke-dasharray="none" stroke="#008000" id="img-e066d7ac-24">
        <path fill="none" d="M68.65,47.86 L 68.65 47.8 68.64 47.75 68.64 47.7 68.64 47.65 68.64 47.59 68.64 47.54 68.64 47.49 68.63 47.44 68.63 47.38 68.63 47.33 68.62 47.28 68.62 47.23 68.61 47.18 68.61 47.12 68.6 47.07 68.6 47.02 68.59 46.97 68.58 46.91 68.58 46.86 68.57 46.81 68.56 46.76 68.55 46.71 68.54 46.65 68.53 46.6 68.52 46.55 68.51 46.5 68.5 46.45 68.49 46.4 68.48 46.34 68.47 46.29 68.46 46.24 68.45 46.19 68.44 46.14 68.42 46.09 68.41 46.04 68.4 45.99 68.38 45.94 68.37 45.89 68.35 45.84 68.34 45.79 68.32 45.73 68.31 45.68 68.29 45.63 68.27 45.58 68.26 45.53 68.24 45.48 68.22 45.44 68.2 45.39 68.18 45.34 68.17 45.29 68.15 45.24 68.13 45.19 68.11 45.14 68.09 45.09 68.07 45.04 68.05 44.99 68.02 44.95 68 44.9 67.98 44.85 67.96 44.8 67.93 44.76 67.91 44.71 67.89 44.66 67.86 44.61 67.84 44.57 67.82 44.52 67.79 44.47 67.77 44.43 67.74 44.38 67.71 44.33 67.69 44.29 67.66 44.24 67.64 44.2 67.61 44.15 67.58 44.11 67.55 44.06 67.52 44.02 67.5 43.97 67.47 43.93 67.44 43.88 67.41 43.84 67.38 43.8 67.35 43.75 67.32 43.71 67.29 43.67 67.26 43.62 67.22 43.58 67.19 43.54 67.16 43.5 67.13 43.45 67.1 43.41 67.06 43.37 67.03 43.33 67 43.29 66.96 43.25 66.93 43.21 66.89 43.17 66.86 43.13 66.82 43.09 66.79 43.05 66.75 43.01 66.72 42.97 66.68 42.93 66.64 42.89 66.61 42.85 66.57 42.82 66.53 42.78 66.49 42.74 66.46 42.7 66.42 42.67 66.38 42.63 66.34 42.59 66.3 42.56 66.26 42.52 66.22 42.49 66.18 42.45 66.14 42.42 66.1 42.38 66.06 42.35 66.02 42.31 65.98 42.28 65.94 42.24 65.9 42.21 65.86 42.18 65.81 42.15 65.77 42.11 65.73 42.08 65.69 42.05"/>
      </g>
      <g stroke-width="0.3" fill="#000000" fill-opacity="0.000" class="geometry" stroke-dasharray="none" stroke="#008000" id="img-e066d7ac-25">
        <path fill="none" d="M52.38,47.86 L 52.38 47.91 52.38 47.96 52.38 48.01 52.38 48.06 52.38 48.11 52.38 48.16 52.39 48.21 52.39 48.26 52.39 48.31 52.39 48.36 52.4 48.4 52.4 48.45 52.4 48.5 52.41 48.55 52.41 48.6 52.42 48.65 52.42 48.7 52.43 48.75 52.43 48.8 52.44 48.85 52.44 48.9 52.45 48.95 52.46 49 52.46 49.05 52.47 49.1 52.48 49.15 52.49 49.2 52.49 49.25 52.5 49.29 52.51 49.34 52.52 49.39 52.53 49.44 52.54 49.49 52.55 49.54 52.56 49.59 52.57 49.64 52.58 49.69 52.59 49.73 52.6 49.78 52.61 49.83 52.63 49.88 52.64 49.93 52.65 49.98 52.66 50.02 52.68 50.07 52.69 50.12 52.7 50.17 52.72 50.22 52.73 50.26 52.74 50.31 52.76 50.36 52.77 50.41 52.79 50.46 52.8 50.5 52.82 50.55 52.84 50.6 52.85 50.64 52.87 50.69 52.89 50.74 52.9 50.79 52.92 50.83 52.94 50.88 52.96 50.93 52.97 50.97 52.99 51.02 53.01 51.06 53.03 51.11 53.05 51.16 53.07 51.2 53.09 51.25 53.11 51.29 53.13 51.34 53.15 51.39 53.17 51.43 53.19 51.48 53.21 51.52 53.24 51.57 53.26 51.61 53.28 51.66 53.3 51.7 53.33 51.74 53.35 51.79 53.37 51.83 53.4 51.88 53.42 51.92 53.44 51.97 53.47 52.01 53.49 52.05 53.52 52.1 53.54 52.14 53.57 52.18 53.59 52.23 53.62 52.27 53.65 52.31 53.67 52.35 53.7 52.4 53.73 52.44 53.75 52.48 53.78 52.52 53.81 52.56 53.84 52.61 53.87 52.65 53.89 52.69 53.92 52.73 53.95 52.77 53.98 52.81 54.01 52.85 54.04 52.89 54.07 52.93 54.1 52.97 54.13 53.01 54.16 53.05 54.19 53.09 54.22 53.13 54.25 53.17 54.29 53.21 54.32 53.25 54.35 53.29 54.38 53.33 54.41 53.37 54.45 53.4 54.48 53.44 54.51 53.48 54.55 53.52 54.58 53.55 54.61 53.59 54.65 53.63 54.68 53.67"/>
      </g>
      <g stroke-width="0.3" fill="#000000" fill-opacity="0.000" class="geometry" stroke-dasharray="none" stroke="#008000" id="img-e066d7ac-26">
        <path fill="none" d="M72.49,47.86 L 72.49 47.81 72.49 47.76 72.49 47.71 72.49 47.67 72.48 47.62 72.48 47.57 72.48 47.52 72.48 47.48 72.48 47.43 72.48 47.38 72.47 47.33 72.47 47.28 72.47 47.24 72.47 47.19 72.46 47.14 72.46 47.09 72.46 47.05 72.45 47 72.45 46.95 72.44 46.9 72.44 46.86 72.44 46.81 72.43 46.76 72.43 46.71 72.42 46.67 72.42 46.62 72.41 46.57 72.4 46.52 72.4 46.48 72.39 46.43 72.39 46.38 72.38 46.33 72.37 46.29 72.36 46.24 72.36 46.19 72.35 46.14 72.34 46.1 72.33 46.05 72.33 46 72.32 45.96 72.31 45.91 72.3 45.86 72.29 45.81 72.28 45.77 72.27 45.72 72.26 45.67 72.25 45.63 72.24 45.58 72.23 45.53 72.22 45.49 72.21 45.44 72.2 45.39 72.19 45.35 72.18 45.3 72.17 45.25 72.16 45.21 72.14 45.16 72.13 45.11 72.12 45.07 72.11 45.02 72.1 44.98 72.08 44.93 72.07 44.88 72.06 44.84 72.04 44.79 72.03 44.75 72.01 44.7 72 44.65 71.99 44.61 71.97 44.56 71.96 44.52 71.94 44.47 71.93 44.43 71.91 44.38 71.9 44.34 71.88 44.29 71.86 44.25 71.85 44.2 71.83 44.16 71.82 44.11 71.8 44.07 71.78 44.02 71.77 43.98 71.75 43.93 71.73 43.89 71.71 43.84 71.69 43.8 71.68 43.75 71.66 43.71 71.64 43.66 71.62 43.62 71.6 43.58 71.58 43.53 71.56 43.49 71.54 43.44 71.52 43.4 71.51 43.36 71.49 43.31 71.46 43.27 71.44 43.23 71.42 43.18 71.4 43.14 71.38 43.1 71.36 43.05 71.34 43.01 71.32 42.97 71.3 42.93 71.27 42.88 71.25 42.84 71.23 42.8 71.21 42.76 71.18 42.71 71.16 42.67 71.14 42.63 71.12 42.59 71.09 42.54 71.07 42.5 71.04 42.46 71.02 42.42 71 42.38 70.97 42.34 70.95 42.3 70.92 42.25 70.9 42.21 70.87 42.17 70.85 42.13 70.82 42.09 70.8 42.05"/>
      </g>
      <g stroke-width="0.3" fill="#000000" fill-opacity="0.000" class="geometry" stroke-dasharray="none" stroke="#008000" id="img-e066d7ac-27">
        <path fill="none" d="M44.75,47.86 L 44.75 47.9 44.75 47.95 44.75 48 44.75 48.04 44.75 48.09 44.75 48.14 44.75 48.18 44.75 48.23 44.76 48.28 44.76 48.32 44.76 48.37 44.76 48.41 44.76 48.46 44.76 48.51 44.77 48.55 44.77 48.6 44.77 48.65 44.77 48.69 44.77 48.74 44.78 48.79 44.78 48.83 44.78 48.88 44.79 48.92 44.79 48.97 44.79 49.02 44.8 49.06 44.8 49.11 44.8 49.16 44.81 49.2 44.81 49.25 44.82 49.29 44.82 49.34 44.82 49.39 44.83 49.43 44.83 49.48 44.84 49.53 44.84 49.57 44.85 49.62 44.85 49.66 44.86 49.71 44.87 49.76 44.87 49.8 44.88 49.85 44.88 49.89 44.89 49.94 44.89 49.99 44.9 50.03 44.91 50.08 44.91 50.12 44.92 50.17 44.93 50.22 44.94 50.26 44.94 50.31 44.95 50.35 44.96 50.4 44.96 50.45 44.97 50.49 44.98 50.54 44.99 50.58 45 50.63 45 50.67 45.01 50.72 45.02 50.77 45.03 50.81 45.04 50.86 45.05 50.9 45.06 50.95 45.07 50.99 45.08 51.04 45.08 51.09 45.09 51.13 45.1 51.18 45.11 51.22 45.12 51.27 45.13 51.31 45.14 51.36 45.15 51.4 45.17 51.45 45.18 51.49 45.19 51.54 45.2 51.58 45.21 51.63 45.22 51.67 45.23 51.72 45.24 51.76 45.25 51.81 45.27 51.85 45.28 51.9 45.29 51.94 45.3 51.99 45.31 52.03 45.33 52.08 45.34 52.12 45.35 52.17 45.36 52.21 45.38 52.26 45.39 52.3 45.4 52.35 45.42 52.39 45.43 52.44 45.44 52.48 45.46 52.52 45.47 52.57 45.49 52.61 45.5 52.66 45.51 52.7 45.53 52.75 45.54 52.79 45.56 52.83 45.57 52.88 45.59 52.92 45.6 52.97 45.62 53.01 45.63 53.05 45.65 53.1 45.66 53.14 45.68 53.19 45.7 53.23 45.71 53.27 45.73 53.32 45.74 53.36 45.76 53.4 45.78 53.45 45.79 53.49 45.81 53.54 45.83 53.58 45.84 53.62 45.86 53.67"/>
      </g>
      <g stroke-width="0.3" fill="#000000" fill-opacity="0.000" class="geometry" stroke-dasharray="none" stroke="#008000" id="img-e066d7ac-28">
        <path fill="none" d="M93.54,47.86 L 93.54 47.81 93.54 47.77 93.54 47.72 93.54 47.67 93.54 47.63 93.54 47.58 93.54 47.54 93.54 47.49 93.53 47.45 93.53 47.4 93.53 47.36 93.53 47.31 93.53 47.26 93.53 47.22 93.53 47.17 93.53 47.13 93.53 47.08 93.53 47.04 93.53 46.99 93.52 46.94 93.52 46.9 93.52 46.85 93.52 46.81 93.52 46.76 93.52 46.72 93.51 46.67 93.51 46.63 93.51 46.58 93.51 46.53 93.51 46.49 93.51 46.44 93.5 46.4 93.5 46.35 93.5 46.31 93.5 46.26 93.49 46.22 93.49 46.17 93.49 46.12 93.49 46.08 93.48 46.03 93.48 45.99 93.48 45.94 93.48 45.9 93.47 45.85 93.47 45.81 93.47 45.76 93.46 45.71 93.46 45.67 93.46 45.62 93.45 45.58 93.45 45.53 93.45 45.49 93.44 45.44 93.44 45.4 93.44 45.35 93.43 45.3 93.43 45.26 93.42 45.21 93.42 45.17 93.42 45.12 93.41 45.08 93.41 45.03 93.4 44.99 93.4 44.94 93.4 44.9 93.39 44.85 93.39 44.8 93.38 44.76 93.38 44.71 93.37 44.67 93.37 44.62 93.36 44.58 93.36 44.53 93.35 44.49 93.35 44.44 93.34 44.4 93.34 44.35 93.33 44.31 93.33 44.26 93.32 44.21 93.32 44.17 93.31 44.12 93.31 44.08 93.3 44.03 93.29 43.99 93.29 43.94 93.28 43.9 93.28 43.85 93.27 43.81 93.26 43.76 93.26 43.72 93.25 43.67 93.25 43.63 93.24 43.58 93.23 43.54 93.23 43.49 93.22 43.45 93.21 43.4 93.21 43.36 93.2 43.31 93.19 43.26 93.19 43.22 93.18 43.17 93.17 43.13 93.17 43.08 93.16 43.04 93.15 42.99 93.15 42.95 93.14 42.9 93.13 42.86 93.12 42.81 93.12 42.77 93.11 42.72 93.1 42.68 93.09 42.63 93.08 42.59 93.08 42.54 93.07 42.5 93.06 42.45 93.05 42.41 93.05 42.36 93.04 42.32 93.03 42.27 93.02 42.23 93.01 42.18 93 42.14 93 42.09 92.99 42.05"/>
      </g>
      <g stroke-width="0.3" fill="#000000" fill-opacity="0.000" class="geometry" stroke-dasharray="none" stroke="#00BFFF" id="img-e066d7ac-29">
        <path fill="none" d="M61.2,47.86 L 92.81 53.63"/>
      </g>
      <g stroke-width="0.3" fill="#000000" fill-opacity="0.000" class="geometry" stroke-dasharray="none" stroke="#00BFFF" id="img-e066d7ac-30">
        <path fill="none" d="M31.22,36.5 L 61.2 47.86"/>
      </g>
      <g stroke-width="0.3" fill="#000000" fill-opacity="0.000" class="geometry" stroke-dasharray="none" stroke="#00BFFF" id="img-e066d7ac-31">
        <path fill="none" d="M61.2,47.86 L 88.54 64.4"/>
      </g>
      <g stroke-width="0.3" fill="#000000" fill-opacity="0.000" class="geometry" stroke-dasharray="none" stroke="#00BFFF" id="img-e066d7ac-32">
        <path fill="none" d="M37.44,26.68 L 61.2 47.86"/>
      </g>
      <g stroke-width="0.3" fill="#000000" fill-opacity="0.000" class="geometry" stroke-dasharray="none" stroke="#00BFFF" id="img-e066d7ac-33">
        <path fill="none" d="M61.2,47.86 L 80.58 72.94"/>
      </g>
      <g stroke-width="0.3" fill="#000000" fill-opacity="0.000" class="geometry" stroke-dasharray="none" stroke="#00BFFF" id="img-e066d7ac-34">
        <path fill="none" d="M46.87,19.72 L 61.2 47.86"/>
      </g>
      <g stroke-width="0.3" fill="#000000" fill-opacity="0.000" class="geometry" stroke-dasharray="none" stroke="#00BFFF" id="img-e066d7ac-35">
        <path fill="none" d="M61.2,47.86 L 70 78.09"/>
      </g>
      <g stroke-width="0.3" fill="#000000" fill-opacity="0.000" class="geometry" stroke-dasharray="none" stroke="#00BFFF" id="img-e066d7ac-36">
        <path fill="none" d="M58.23,16.56 L 61.2 47.86"/>
      </g>
      <g stroke-width="0.3" fill="#000000" fill-opacity="0.000" class="geometry" stroke-dasharray="none" stroke="#00BFFF" id="img-e066d7ac-37">
        <path fill="none" d="M58.23,79.15 L 61.2 47.86"/>
      </g>
      <g stroke-width="0.3" fill="#000000" fill-opacity="0.000" class="geometry" stroke-dasharray="none" stroke="#00BFFF" id="img-e066d7ac-38">
        <path fill="none" d="M61.2,47.86 L 70 17.63"/>
      </g>
      <g stroke-width="0.3" fill="#000000" fill-opacity="0.000" class="geometry" stroke-dasharray="none" stroke="#00BFFF" id="img-e066d7ac-39">
        <path fill="none" d="M46.87,75.99 L 61.2 47.86"/>
      </g>
      <g stroke-width="0.3" fill="#000000" fill-opacity="0.000" class="geometry" stroke-dasharray="none" stroke="#00BFFF" id="img-e066d7ac-40">
        <path fill="none" d="M61.2,47.86 L 80.58 22.78"/>
      </g>
      <g stroke-width="0.3" fill="#000000" fill-opacity="0.000" class="geometry" stroke-dasharray="none" stroke="#00BFFF" id="img-e066d7ac-41">
        <path fill="none" d="M37.44,69.03 L 61.2 47.86"/>
      </g>
      <g stroke-width="0.3" fill="#000000" fill-opacity="0.000" class="geometry" stroke-dasharray="none" stroke="#00BFFF" id="img-e066d7ac-42">
        <path fill="none" d="M61.2,47.86 L 88.54 31.31"/>
      </g>
      <g stroke-width="0.3" fill="#000000" fill-opacity="0.000" class="geometry" stroke-dasharray="none" stroke="#00BFFF" id="img-e066d7ac-43">
        <path fill="none" d="M31.22,59.21 L 61.2 47.86"/>
      </g>
      <g stroke-width="0.3" fill="#000000" fill-opacity="0.000" class="geometry" stroke-dasharray="none" stroke="#00BFFF" id="img-e066d7ac-44">
        <path fill="none" d="M61.2,47.86 L 92.81 42.08"/>
      </g>
      <g class="geometry" stroke="#000000" stroke-opacity="0.000" fill="#4C404B" font-size="2.82" font-family="'PT Sans Caption','Helvetica Neue','Helvetica',sans-serif" id="img-e066d7ac-45">
        <text x="95.48" y="55.97" text-anchor="middle" dy="0.35em" visibility="visible">16</text>
      </g>
      <g class="geometry" stroke="#000000" stroke-opacity="0.000" fill="#4C404B" font-size="2.82" font-family="'PT Sans Caption','Helvetica Neue','Helvetica',sans-serif" id="img-e066d7ac-46">
        <text x="32.58" y="34.17" text-anchor="middle" dy="0.35em" visibility="hidden">15</text>
      </g>
      <g class="geometry" stroke="#000000" stroke-opacity="0.000" fill="#4C404B" font-size="2.82" font-family="'PT Sans Caption','Helvetica Neue','Helvetica',sans-serif" id="img-e066d7ac-47">
        <text x="91.21" y="66.74" text-anchor="middle" dy="0.35em" visibility="visible">14</text>
      </g>
      <g class="geometry" stroke="#000000" stroke-opacity="0.000" fill="#4C404B" font-size="2.82" font-family="'PT Sans Caption','Helvetica Neue','Helvetica',sans-serif" id="img-e066d7ac-48">
        <text x="40.11" y="29.02" text-anchor="middle" dy="0.35em" visibility="visible">13</text>
      </g>
      <g class="geometry" stroke="#000000" stroke-opacity="0.000" fill="#4C404B" font-size="2.82" font-family="'PT Sans Caption','Helvetica Neue','Helvetica',sans-serif" id="img-e066d7ac-49">
        <text x="83.25" y="75.27" text-anchor="middle" dy="0.35em" visibility="visible">12</text>
      </g>
      <g class="geometry" stroke="#000000" stroke-opacity="0.000" fill="#4C404B" font-size="2.82" font-family="'PT Sans Caption','Helvetica Neue','Helvetica',sans-serif" id="img-e066d7ac-50">
        <text x="49.54" y="22.06" text-anchor="middle" dy="0.35em" visibility="visible">11</text>
      </g>
      <g class="geometry" stroke="#000000" stroke-opacity="0.000" fill="#4C404B" font-size="2.82" font-family="'PT Sans Caption','Helvetica Neue','Helvetica',sans-serif" id="img-e066d7ac-51">
        <text x="72.67" y="80.42" text-anchor="middle" dy="0.35em" visibility="visible">10</text>
      </g>
      <g class="geometry" stroke="#000000" stroke-opacity="0.000" fill="#4C404B" font-size="2.82" font-family="'PT Sans Caption','Helvetica Neue','Helvetica',sans-serif" id="img-e066d7ac-52">
        <text x="60.07" y="18.9" text-anchor="middle" dy="0.35em" visibility="visible">9</text>
      </g>
      <g class="geometry" stroke="#000000" stroke-opacity="0.000" fill="#4C404B" font-size="2.82" font-family="'PT Sans Caption','Helvetica Neue','Helvetica',sans-serif" id="img-e066d7ac-53">
        <text x="60.07" y="81.49" text-anchor="middle" dy="0.35em" visibility="visible">8</text>
      </g>
      <g class="geometry" stroke="#000000" stroke-opacity="0.000" fill="#4C404B" font-size="2.82" font-family="'PT Sans Caption','Helvetica Neue','Helvetica',sans-serif" id="img-e066d7ac-54">
        <text x="71.84" y="19.97" text-anchor="middle" dy="0.35em" visibility="visible">7</text>
      </g>
      <g class="geometry" stroke="#000000" stroke-opacity="0.000" fill="#4C404B" font-size="2.82" font-family="'PT Sans Caption','Helvetica Neue','Helvetica',sans-serif" id="img-e066d7ac-55">
        <text x="48.7" y="78.33" text-anchor="middle" dy="0.35em" visibility="visible">6</text>
      </g>
      <g class="geometry" stroke="#000000" stroke-opacity="0.000" fill="#4C404B" font-size="2.82" font-family="'PT Sans Caption','Helvetica Neue','Helvetica',sans-serif" id="img-e066d7ac-56">
        <text x="82.41" y="25.11" text-anchor="middle" dy="0.35em" visibility="visible">5</text>
      </g>
      <g class="geometry" stroke="#000000" stroke-opacity="0.000" fill="#4C404B" font-size="2.82" font-family="'PT Sans Caption','Helvetica Neue','Helvetica',sans-serif" id="img-e066d7ac-57">
        <text x="39.27" y="71.37" text-anchor="middle" dy="0.35em" visibility="visible">4</text>
      </g>
      <g class="geometry" stroke="#000000" stroke-opacity="0.000" fill="#4C404B" font-size="2.82" font-family="'PT Sans Caption','Helvetica Neue','Helvetica',sans-serif" id="img-e066d7ac-58">
        <text x="90.37" y="33.65" text-anchor="middle" dy="0.35em" visibility="visible">3</text>
      </g>
      <g class="geometry" stroke="#000000" stroke-opacity="0.000" fill="#4C404B" font-size="2.82" font-family="'PT Sans Caption','Helvetica Neue','Helvetica',sans-serif" id="img-e066d7ac-59">
        <text x="29.38" y="59.72" text-anchor="middle" dy="0.35em" visibility="hidden">2</text>
      </g>
      <g class="geometry" stroke="#000000" stroke-opacity="0.000" fill="#4C404B" font-size="2.82" font-family="'PT Sans Caption','Helvetica Neue','Helvetica',sans-serif" id="img-e066d7ac-60">
        <text x="94.64" y="44.42" text-anchor="middle" dy="0.35em" visibility="visible">1</text>
      </g>
      <g stroke-width="0.3" fill="#000000" fill-opacity="0.000" class="geometry" stroke-dasharray="none" stroke="#00BFFF" id="img-e066d7ac-61">
        <path fill="none" d="M93.35,47.86 L 93.31 46.32 93.2 44.78 93.01 43.25 92.74 41.73 92.39 40.22 91.97 38.73 91.47 37.27 90.91 35.83 90.27 34.42 89.56 33.04 88.78 31.7 87.93 30.4 87.03 29.14 86.05 27.92 85.02 26.75 83.94 25.63 82.79 24.57 81.6 23.56 80.35 22.61 79.06 21.73 77.73 20.9 76.36 20.14 74.95 19.45 73.5 18.82 72.03 18.27 70.53 17.78 69.01 17.37 67.47 17.03 65.92 16.77 64.35 16.58 62.78 16.47 61.2 16.43 59.62 16.47 58.05 16.58 56.48 16.77 54.93 17.03 53.39 17.37 51.87 17.78 50.37 18.27 48.89 18.82 47.45 19.45 46.04 20.14 44.67 20.9 43.34 21.73 42.04 22.61 40.8 23.56 39.61 24.57 38.46 25.63 37.37 26.75 36.34 27.92 35.37 29.14 34.46 30.4 33.62 31.7 32.84 33.04 32.13 34.42 31.49 35.83 30.92 37.27 30.43 38.73 30.01 40.22 29.66 41.73 29.39 43.25 29.2 44.78 29.08 46.32 29.04 47.86 29.08 49.4 29.2 50.94 29.39 52.47 29.66 53.99 30.01 55.49 30.43 56.98 30.92 58.45 31.49 59.88 32.13 61.3 32.84 62.67 33.62 64.02 34.46 65.32 35.37 66.58 36.34 67.8 37.37 68.96 38.46 70.08 39.61 71.14 40.8 72.15 42.04 73.1 43.34 73.99 44.67 74.81 46.04 75.58 47.45 76.27 48.89 76.89 50.37 77.45 51.87 77.93 53.39 78.34 54.93 78.68 56.48 78.95 58.05 79.14 59.62 79.25 61.2 79.29 62.78 79.25 64.35 79.14 65.92 78.95 67.47 78.68 69.01 78.34 70.53 77.93 72.03 77.45 73.5 76.89 74.95 76.27 76.36 75.58 77.73 74.81 79.06 73.99 80.35 73.1 81.6 72.15 82.79 71.14 83.94 70.08 85.02 68.96 86.05 67.8 87.03 66.58 87.93 65.32 88.78 64.02 89.56 62.67 90.27 61.3 90.91 59.88 91.47 58.45 91.97 56.98 92.39 55.49 92.74 53.99 93.01 52.47 93.2 50.94 93.31 49.4 93.35 47.86"/>
      </g>
      <g class="xfixed" stroke-dasharray="none" stroke-width="0.3" stroke="#808080" id="img-e066d7ac-62">
        <path fill="none" d="M17.4,53.67 L 105 53.67"/>
      </g>
      <g class="xfixed" stroke-dasharray="none" stroke-width="0.3" stroke="#808080" id="img-e066d7ac-63">
        <path fill="none" d="M17.4,42.05 L 105 42.05"/>
      </g>
      <g class="geometry" stroke="#000000" stroke-opacity="0.000" fill="#4C404B" font-size="2.82" font-family="'PT Sans Caption','Helvetica Neue','Helvetica',sans-serif" id="img-e066d7ac-64">
        <text x="101.55" y="56" text-anchor="middle" dy="0.35em" visibility="visible">-π/17</text>
      </g>
      <g class="geometry" stroke="#000000" stroke-opacity="0.000" fill="#4C404B" font-size="2.82" font-family="'PT Sans Caption','Helvetica Neue','Helvetica',sans-serif" id="img-e066d7ac-65">
        <text x="100.99" y="44.39" text-anchor="middle" dy="0.35em" visibility="visible">π/17</text>
      </g>
    </g>
  </g>
</g>
  <g class="guide ylabels" font-size="2.82" font-family="'PT Sans Caption','Helvetica Neue','Helvetica',sans-serif" fill="#6C606B" id="img-e066d7ac-66">
    <text x="16.4" y="79.29" text-anchor="end" dy="0.35em">-1</text>
    <text x="16.4" y="47.86" text-anchor="end" dy="0.35em">0</text>
    <text x="16.4" y="16.43" text-anchor="end" dy="0.35em">1</text>
  </g>
  <g font-size="3.88" font-family="'PT Sans','Helvetica Neue','Helvetica',sans-serif" fill="#564A55" stroke="#000000" stroke-opacity="0.000" id="img-e066d7ac-67">
    <text x="8.81" y="45.86" text-anchor="middle" dy="0.35em" transform="rotate(-90, 8.81, 47.86)">Im(αₙ)</text>
  </g>
</g>
<defs>
  <clipPath id="img-e066d7ac-4">
  <path d="M17.4,5 L 105 5 105 90.72 17.4 90.72" />
</clipPath>
  <g id="img-e066d7ac-12">
    <circle cx="0" cy="0" r="0.9"/>
  </g>
</defs>
</svg>
