<?xml version="1.0" encoding="UTF-8"?>
<svg xmlns="http://www.w3.org/2000/svg"
     xmlns:xlink="http://www.w3.org/1999/xlink"
     xmlns:gadfly="http://www.gadflyjl.org/ns"
     version="1.2"
     width="110mm" height="110mm" viewBox="0 0 110 110"
     stroke="none"
     fill="#000000"
     stroke-width="0.3"
     font-size="3.88"
>
<g class="plotroot xscalable yscalable" id="img-a83b93f4-1">
  <g font-size="3.88" font-family="'PT Sans','Helvetica Neue','Helvetica',sans-serif" fill="#564A55" stroke="#000000" stroke-opacity="0.000" id="img-a83b93f4-2">
    <text x="61.2" y="98.39" text-anchor="middle" dy="0.6em">Re(αₙ)</text>
  </g>
  <g class="guide xlabels" font-size="2.82" font-family="'PT Sans Caption','Helvetica Neue','Helvetica',sans-serif" fill="#6C606B" id="img-a83b93f4-3">
    <text x="29.04" y="91.72" text-anchor="middle" dy="0.6em">-1</text>
    <text x="61.2" y="91.72" text-anchor="middle" dy="0.6em">0</text>
    <text x="93.35" y="91.72" text-anchor="middle" dy="0.6em">1</text>
  </g>
<g clip-path="url(#img-a83b93f4-4)">
  <g id="img-a83b93f4-5">
    <g pointer-events="visible" opacity="1" fill="#000000" fill-opacity="0.000" stroke="#000000" stroke-opacity="0.000" class="guide background" id="img-a83b93f4-6">
      <rect x="17.4" y="5" width="87.6" height="85.72"/>
    </g>
    <g class="guide ygridlines xfixed" stroke-dasharray="0.5,0.5" stroke-width="0.2" stroke="#D0D0E0" id="img-a83b93f4-7">
      <path fill="none" d="M17.4,79.29 L 105 79.29"/>
      <path fill="none" d="M17.4,47.86 L 105 47.86"/>
      <path fill="none" d="M17.4,16.43 L 105 16.43"/>
    </g>
    <g class="guide xgridlines yfixed" stroke-dasharray="0.5,0.5" stroke-width="0.2" stroke="#D0D0E0" id="img-a83b93f4-8">
      <path fill="none" d="M29.04,5 L 29.04 90.72"/>
      <path fill="none" d="M61.2,5 L 61.2 90.72"/>
      <path fill="none" d="M93.35,5 L 93.35 90.72"/>
    </g>
    <g class="plotpanel" id="img-a83b93f4-9">
      <g class="geometry" id="img-a83b93f4-10">
        <g class="color_RGBA{Float32}(0.0f0,0.74736935f0,1.0f0,1.0f0)" stroke="#FFFFFF" stroke-width="0.3" fill="#00BFFF" id="img-a83b93f4-11">
          <use xlink:href="#img-a83b93f4-12" x="92.94" y="41.69"/>
          <use xlink:href="#img-a83b93f4-12" x="45.96" y="54.03"/>
          <use xlink:href="#img-a83b93f4-12" x="70.65" y="41.69"/>
          <use xlink:href="#img-a83b93f4-12" x="54.89" y="54.03"/>
          <use xlink:href="#img-a83b93f4-12" x="65.42" y="41.69"/>
          <use xlink:href="#img-a83b93f4-12" x="58.58" y="54.03"/>
          <use xlink:href="#img-a83b93f4-12" x="62.46" y="41.69"/>
          <use xlink:href="#img-a83b93f4-12" x="61.2" y="54.03"/>
          <use xlink:href="#img-a83b93f4-12" x="59.94" y="41.69"/>
          <use xlink:href="#img-a83b93f4-12" x="63.81" y="54.03"/>
          <use xlink:href="#img-a83b93f4-12" x="56.98" y="41.69"/>
          <use xlink:href="#img-a83b93f4-12" x="67.51" y="54.03"/>
          <use xlink:href="#img-a83b93f4-12" x="51.75" y="41.69"/>
          <use xlink:href="#img-a83b93f4-12" x="76.44" y="54.03"/>
          <use xlink:href="#img-a83b93f4-12" x="29.46" y="41.69"/>
        </g>
      </g>
      <g stroke-width="0.3" fill="#000000" fill-opacity="0.000" class="geometry" stroke-dasharray="none" stroke="#008000" id="img-a83b93f4-13">
        <path fill="none" d="M29.46,47.86 L 29.46 41.69"/>
      </g>
      <g stroke-width="0.3" fill="#000000" fill-opacity="0.000" class="geometry" stroke-dasharray="none" stroke="#008000" id="img-a83b93f4-14">
        <path fill="none" d="M76.44,47.86 L 76.44 54.03"/>
      </g>
      <g stroke-width="0.3" fill="#000000" fill-opacity="0.000" class="geometry" stroke-dasharray="none" stroke="#008000" id="img-a83b93f4-15">
        <path fill="none" d="M51.75,47.86 L 51.75 41.69"/>
      </g>
      <g stroke-width="0.3" fill="#000000" fill-opacity="0.000" class="geometry" stroke-dasharray="none" stroke="#008000" id="img-a83b93f4-16">
        <path fill="none" d="M67.51,47.86 L 67.51 54.03"/>
      </g>
      <g stroke-width="0.3" fill="#000000" fill-opacity="0.000" class="geometry" stroke-dasharray="none" stroke="#008000" id="img-a83b93f4-17">
        <path fill="none" d="M56.98,47.86 L 56.98 41.69"/>
      </g>
      <g stroke-width="0.3" fill="#000000" fill-opacity="0.000" class="geometry" stroke-dasharray="none" stroke="#008000" id="img-a83b93f4-18">
        <path fill="none" d="M63.81,47.86 L 63.81 54.03"/>
      </g>
      <g stroke-width="0.3" fill="#000000" fill-opacity="0.000" class="geometry" stroke-dasharray="none" stroke="#008000" id="img-a83b93f4-19">
        <path fill="none" d="M59.94,47.86 L 59.94 41.69"/>
      </g>
      <g stroke-width="0.3" fill="#000000" fill-opacity="0.000" class="geometry" stroke-dasharray="none" stroke="#008000" id="img-a83b93f4-20">
        <path fill="none" d="M61.2,47.86 L 61.2 54.03"/>
      </g>
      <g stroke-width="0.3" fill="#000000" fill-opacity="0.000" class="geometry" stroke-dasharray="none" stroke="#008000" id="img-a83b93f4-21">
        <path fill="none" d="M62.46,47.86 L 62.46 41.69"/>
      </g>
      <g stroke-width="0.3" fill="#000000" fill-opacity="0.000" class="geometry" stroke-dasharray="none" stroke="#008000" id="img-a83b93f4-22">
        <path fill="none" d="M58.58,47.86 L 58.58 54.03"/>
      </g>
      <g stroke-width="0.3" fill="#000000" fill-opacity="0.000" class="geometry" stroke-dasharray="none" stroke="#008000" id="img-a83b93f4-23">
        <path fill="none" d="M65.42,47.86 L 65.42 41.69"/>
      </g>
      <g stroke-width="0.3" fill="#000000" fill-opacity="0.000" class="geometry" stroke-dasharray="none" stroke="#008000" id="img-a83b93f4-24">
        <path fill="none" d="M54.89,47.86 L 54.89 54.03"/>
      </g>
      <g stroke-width="0.3" fill="#000000" fill-opacity="0.000" class="geometry" stroke-dasharray="none" stroke="#008000" id="img-a83b93f4-25">
        <path fill="none" d="M70.65,47.86 L 70.65 41.69"/>
      </g>
      <g stroke-width="0.3" fill="#000000" fill-opacity="0.000" class="geometry" stroke-dasharray="none" stroke="#008000" id="img-a83b93f4-26">
        <path fill="none" d="M45.96,47.86 L 45.96 54.03"/>
      </g>
      <g stroke-width="0.3" fill="#000000" fill-opacity="0.000" class="geometry" stroke-dasharray="none" stroke="#008000" id="img-a83b93f4-27">
        <path fill="none" d="M92.94,47.86 L 92.94 41.69"/>
      </g>
      <g stroke-width="0.3" fill="#000000" fill-opacity="0.000" class="geometry" stroke-dasharray="none" stroke="#00BFFF" id="img-a83b93f4-28">
        <path fill="none" d="M29.66,41.73 L 61.2 47.86"/>
      </g>
      <g stroke-width="0.3" fill="#000000" fill-opacity="0.000" class="geometry" stroke-dasharray="none" stroke="#00BFFF" id="img-a83b93f4-29">
        <path fill="none" d="M61.2,47.86 L 90.91 59.88"/>
      </g>
      <g stroke-width="0.3" fill="#000000" fill-opacity="0.000" class="geometry" stroke-dasharray="none" stroke="#00BFFF" id="img-a83b93f4-30">
        <path fill="none" d="M34.46,30.4 L 61.2 47.86"/>
      </g>
      <g stroke-width="0.3" fill="#000000" fill-opacity="0.000" class="geometry" stroke-dasharray="none" stroke="#00BFFF" id="img-a83b93f4-31">
        <path fill="none" d="M61.2,47.86 L 83.94 70.08"/>
      </g>
      <g stroke-width="0.3" fill="#000000" fill-opacity="0.000" class="geometry" stroke-dasharray="none" stroke="#00BFFF" id="img-a83b93f4-32">
        <path fill="none" d="M43.34,21.73 L 61.2 47.86"/>
      </g>
      <g stroke-width="0.3" fill="#000000" fill-opacity="0.000" class="geometry" stroke-dasharray="none" stroke="#00BFFF" id="img-a83b93f4-33">
        <path fill="none" d="M61.2,47.86 L 73.5 76.89"/>
      </g>
      <g stroke-width="0.3" fill="#000000" fill-opacity="0.000" class="geometry" stroke-dasharray="none" stroke="#00BFFF" id="img-a83b93f4-34">
        <path fill="none" d="M54.93,17.03 L 61.2 47.86"/>
      </g>
      <g stroke-width="0.3" fill="#000000" fill-opacity="0.000" class="geometry" stroke-dasharray="none" stroke="#00BFFF" id="img-a83b93f4-35">
        <path fill="none" d="M61.2,79.29 L 61.2 47.86"/>
      </g>
      <g stroke-width="0.3" fill="#000000" fill-opacity="0.000" class="geometry" stroke-dasharray="none" stroke="#00BFFF" id="img-a83b93f4-36">
        <path fill="none" d="M61.2,47.86 L 67.47 17.03"/>
      </g>
      <g stroke-width="0.3" fill="#000000" fill-opacity="0.000" class="geometry" stroke-dasharray="none" stroke="#00BFFF" id="img-a83b93f4-37">
        <path fill="none" d="M48.89,76.89 L 61.2 47.86"/>
      </g>
      <g stroke-width="0.3" fill="#000000" fill-opacity="0.000" class="geometry" stroke-dasharray="none" stroke="#00BFFF" id="img-a83b93f4-38">
        <path fill="none" d="M61.2,47.86 L 79.06 21.73"/>
      </g>
      <g stroke-width="0.3" fill="#000000" fill-opacity="0.000" class="geometry" stroke-dasharray="none" stroke="#00BFFF" id="img-a83b93f4-39">
        <path fill="none" d="M38.46,70.08 L 61.2 47.86"/>
      </g>
      <g stroke-width="0.3" fill="#000000" fill-opacity="0.000" class="geometry" stroke-dasharray="none" stroke="#00BFFF" id="img-a83b93f4-40">
        <path fill="none" d="M61.2,47.86 L 87.93 30.4"/>
      </g>
      <g stroke-width="0.3" fill="#000000" fill-opacity="0.000" class="geometry" stroke-dasharray="none" stroke="#00BFFF" id="img-a83b93f4-41">
        <path fill="none" d="M31.49,59.88 L 61.2 47.86"/>
      </g>
      <g stroke-width="0.3" fill="#000000" fill-opacity="0.000" class="geometry" stroke-dasharray="none" stroke="#00BFFF" id="img-a83b93f4-42">
        <path fill="none" d="M61.2,47.86 L 92.74 41.73"/>
      </g>
      <g class="geometry" stroke="#000000" stroke-opacity="0.000" fill="#4C404B" font-size="2.82" font-family="'PT Sans Caption','Helvetica Neue','Helvetica',sans-serif" id="img-a83b93f4-43">
        <text x="26.99" y="41.83" text-anchor="middle" dy="0.35em" visibility="hidden">15</text>
      </g>
      <g class="geometry" stroke="#000000" stroke-opacity="0.000" fill="#4C404B" font-size="2.82" font-family="'PT Sans Caption','Helvetica Neue','Helvetica',sans-serif" id="img-a83b93f4-44">
        <text x="93.58" y="62.22" text-anchor="middle" dy="0.35em" visibility="visible">14</text>
      </g>
      <g class="geometry" stroke="#000000" stroke-opacity="0.000" fill="#4C404B" font-size="2.82" font-family="'PT Sans Caption','Helvetica Neue','Helvetica',sans-serif" id="img-a83b93f4-45">
        <text x="37.14" y="32.73" text-anchor="middle" dy="0.35em" visibility="hidden">13</text>
      </g>
      <g class="geometry" stroke="#000000" stroke-opacity="0.000" fill="#4C404B" font-size="2.82" font-family="'PT Sans Caption','Helvetica Neue','Helvetica',sans-serif" id="img-a83b93f4-46">
        <text x="86.61" y="72.42" text-anchor="middle" dy="0.35em" visibility="visible">12</text>
      </g>
      <g class="geometry" stroke="#000000" stroke-opacity="0.000" fill="#4C404B" font-size="2.82" font-family="'PT Sans Caption','Helvetica Neue','Helvetica',sans-serif" id="img-a83b93f4-47">
        <text x="46.01" y="24.06" text-anchor="middle" dy="0.35em" visibility="visible">11</text>
      </g>
      <g class="geometry" stroke="#000000" stroke-opacity="0.000" fill="#4C404B" font-size="2.82" font-family="'PT Sans Caption','Helvetica Neue','Helvetica',sans-serif" id="img-a83b93f4-48">
        <text x="76.18" y="79.23" text-anchor="middle" dy="0.35em" visibility="visible">10</text>
      </g>
      <g class="geometry" stroke="#000000" stroke-opacity="0.000" fill="#4C404B" font-size="2.82" font-family="'PT Sans Caption','Helvetica Neue','Helvetica',sans-serif" id="img-a83b93f4-49">
        <text x="56.76" y="19.37" text-anchor="middle" dy="0.35em" visibility="visible">9</text>
      </g>
      <g class="geometry" stroke="#000000" stroke-opacity="0.000" fill="#4C404B" font-size="2.82" font-family="'PT Sans Caption','Helvetica Neue','Helvetica',sans-serif" id="img-a83b93f4-50">
        <text x="63.04" y="81.62" text-anchor="middle" dy="0.35em" visibility="visible">8</text>
      </g>
      <g class="geometry" stroke="#000000" stroke-opacity="0.000" fill="#4C404B" font-size="2.82" font-family="'PT Sans Caption','Helvetica Neue','Helvetica',sans-serif" id="img-a83b93f4-51">
        <text x="69.31" y="19.37" text-anchor="middle" dy="0.35em" visibility="visible">7</text>
      </g>
      <g class="geometry" stroke="#000000" stroke-opacity="0.000" fill="#4C404B" font-size="2.82" font-family="'PT Sans Caption','Helvetica Neue','Helvetica',sans-serif" id="img-a83b93f4-52">
        <text x="50.73" y="79.23" text-anchor="middle" dy="0.35em" visibility="visible">6</text>
      </g>
      <g class="geometry" stroke="#000000" stroke-opacity="0.000" fill="#4C404B" font-size="2.82" font-family="'PT Sans Caption','Helvetica Neue','Helvetica',sans-serif" id="img-a83b93f4-53">
        <text x="80.9" y="24.06" text-anchor="middle" dy="0.35em" visibility="visible">5</text>
      </g>
      <g class="geometry" stroke="#000000" stroke-opacity="0.000" fill="#4C404B" font-size="2.82" font-family="'PT Sans Caption','Helvetica Neue','Helvetica',sans-serif" id="img-a83b93f4-54">
        <text x="40.3" y="72.42" text-anchor="middle" dy="0.35em" visibility="visible">4</text>
      </g>
      <g class="geometry" stroke="#000000" stroke-opacity="0.000" fill="#4C404B" font-size="2.82" font-family="'PT Sans Caption','Helvetica Neue','Helvetica',sans-serif" id="img-a83b93f4-55">
        <text x="89.77" y="32.73" text-anchor="middle" dy="0.35em" visibility="visible">3</text>
      </g>
      <g class="geometry" stroke="#000000" stroke-opacity="0.000" fill="#4C404B" font-size="2.82" font-family="'PT Sans Caption','Helvetica Neue','Helvetica',sans-serif" id="img-a83b93f4-56">
        <text x="32.62" y="62.22" text-anchor="middle" dy="0.35em" visibility="hidden">2</text>
      </g>
      <g class="geometry" stroke="#000000" stroke-opacity="0.000" fill="#4C404B" font-size="2.82" font-family="'PT Sans Caption','Helvetica Neue','Helvetica',sans-serif" id="img-a83b93f4-57">
        <text x="94.57" y="44.06" text-anchor="middle" dy="0.35em" visibility="visible">1</text>
      </g>
      <g stroke-width="0.3" fill="#000000" fill-opacity="0.000" class="geometry" stroke-dasharray="none" stroke="#00BFFF" id="img-a83b93f4-58">
        <path fill="none" d="M93.35,47.86 L 93.31 46.32 93.2 44.78 93.01 43.25 92.74 41.73 92.39 40.22 91.97 38.73 91.47 37.27 90.91 35.83 90.27 34.42 89.56 33.04 88.78 31.7 87.93 30.4 87.03 29.14 86.05 27.92 85.02 26.75 83.94 25.63 82.79 24.57 81.6 23.56 80.35 22.61 79.06 21.73 77.73 20.9 76.36 20.14 74.95 19.45 73.5 18.82 72.03 18.27 70.53 17.78 69.01 17.37 67.47 17.03 65.92 16.77 64.35 16.58 62.78 16.47 61.2 16.43 59.62 16.47 58.05 16.58 56.48 16.77 54.93 17.03 53.39 17.37 51.87 17.78 50.37 18.27 48.89 18.82 47.45 19.45 46.04 20.14 44.67 20.9 43.34 21.73 42.04 22.61 40.8 23.56 39.61 24.57 38.46 25.63 37.37 26.75 36.34 27.92 35.37 29.14 34.46 30.4 33.62 31.7 32.84 33.04 32.13 34.42 31.49 35.83 30.92 37.27 30.43 38.73 30.01 40.22 29.66 41.73 29.39 43.25 29.2 44.78 29.08 46.32 29.04 47.86 29.08 49.4 29.2 50.94 29.39 52.47 29.66 53.99 30.01 55.49 30.43 56.98 30.92 58.45 31.49 59.88 32.13 61.3 32.84 62.67 33.62 64.02 34.46 65.32 35.37 66.58 36.34 67.8 37.37 68.96 38.46 70.08 39.61 71.14 40.8 72.15 42.04 73.1 43.34 73.99 44.67 74.81 46.04 75.58 47.45 76.27 48.89 76.89 50.37 77.45 51.87 77.93 53.39 78.34 54.93 78.68 56.48 78.95 58.05 79.14 59.62 79.25 61.2 79.29 62.78 79.25 64.35 79.14 65.92 78.95 67.47 78.68 69.01 78.34 70.53 77.93 72.03 77.45 73.5 76.89 74.95 76.27 76.36 75.58 77.73 74.81 79.06 73.99 80.35 73.1 81.6 72.15 82.79 71.14 83.94 70.08 85.02 68.96 86.05 67.8 87.03 66.58 87.93 65.32 88.78 64.02 89.56 62.67 90.27 61.3 90.91 59.88 91.47 58.45 91.97 56.98 92.39 55.49 92.74 53.99 93.01 52.47 93.2 50.94 93.31 49.4 93.35 47.86"/>
      </g>
      <g class="xfixed" stroke-dasharray="none" stroke-width="0.3" stroke="#808080" id="img-a83b93f4-59">
        <path fill="none" d="M17.4,54.03 L 105 54.03"/>
      </g>
      <g class="xfixed" stroke-dasharray="none" stroke-width="0.3" stroke="#808080" id="img-a83b93f4-60">
        <path fill="none" d="M17.4,41.69 L 105 41.69"/>
      </g>
      <g class="geometry" stroke="#000000" stroke-opacity="0.000" fill="#4C404B" font-size="2.82" font-family="'PT Sans Caption','Helvetica Neue','Helvetica',sans-serif" id="img-a83b93f4-61">
        <text x="101.55" y="56.37" text-anchor="middle" dy="0.35em" visibility="visible">-π/16</text>
      </g>
      <g class="geometry" stroke="#000000" stroke-opacity="0.000" fill="#4C404B" font-size="2.82" font-family="'PT Sans Caption','Helvetica Neue','Helvetica',sans-serif" id="img-a83b93f4-62">
        <text x="100.99" y="44.02" text-anchor="middle" dy="0.35em" visibility="visible">π/16</text>
      </g>
    </g>
  </g>
</g>
  <g class="guide ylabels" font-size="2.82" font-family="'PT Sans Caption','Helvetica Neue','Helvetica',sans-serif" fill="#6C606B" id="img-a83b93f4-63">
    <text x="16.4" y="79.29" text-anchor="end" dy="0.35em">-1</text>
    <text x="16.4" y="47.86" text-anchor="end" dy="0.35em">0</text>
    <text x="16.4" y="16.43" text-anchor="end" dy="0.35em">1</text>
  </g>
  <g font-size="3.88" font-family="'PT Sans','Helvetica Neue','Helvetica',sans-serif" fill="#564A55" stroke="#000000" stroke-opacity="0.000" id="img-a83b93f4-64">
    <text x="8.81" y="45.86" text-anchor="middle" dy="0.35em" transform="rotate(-90, 8.81, 47.86)">Im(αₙ)</text>
  </g>
</g>
<defs>
  <clipPath id="img-a83b93f4-4">
  <path d="M17.4,5 L 105 5 105 90.72 17.4 90.72" />
</clipPath>
  <g id="img-a83b93f4-12">
    <circle cx="0" cy="0" r="0.9"/>
  </g>
</defs>
</svg>
